<svg width="249" height="79" viewBox="0 0 249 79" fill="none" xmlns="http://www.w3.org/2000/svg">
<path d="M0 31.1677V29.7383L1.85143 29.5989C2.61995 29.5291 3.17887 29.3897 3.45833 29.1108C3.77273 28.8319 3.91246 28.2392 3.91246 27.3327V4.91571C3.91246 4.00927 3.77273 3.38173 3.45833 3.13769C3.14394 2.85878 2.61995 2.68447 1.85143 2.6496L0 2.51015V1.08076H12.2614C13.3443 1.08076 14.532 1.15049 15.7896 1.28994C17.117 1.39453 18.3047 1.7083 19.4226 2.16152C20.5404 2.61474 21.4836 3.312 22.2172 4.25331C22.9508 5.19462 23.335 6.44969 23.335 8.0534C23.335 9.23875 23.0905 10.2498 22.6014 11.0865C22.1124 11.9232 21.5185 12.6205 20.8548 13.1783C20.1911 13.7361 19.4924 14.1545 18.8287 14.4334C18.1301 14.7123 17.6061 14.8866 17.2567 14.9912C17.5362 14.9912 17.9205 15.0609 18.4444 15.1655C18.9684 15.2701 19.5274 15.4444 20.1561 15.6884C20.7849 15.9325 21.3788 16.2462 22.0425 16.6297C22.6713 17.0132 23.2652 17.5013 23.7891 18.0591C24.3131 18.6169 24.7323 19.2793 25.0817 20.0463C25.431 20.8133 25.6056 21.65 25.6056 22.6262C25.6056 25.5896 24.383 27.7511 21.9028 29.1108C19.4226 30.4704 15.8245 31.1677 11.1435 31.1677H0ZM8.24411 14.7471H9.36195C10.2702 14.7471 11.1086 14.7123 11.8771 14.6077C12.6107 14.5031 13.2395 14.4334 13.7635 14.3288C14.3923 14.2242 15.021 14.015 15.6498 13.771C16.2786 13.5269 16.8375 13.1434 17.3615 12.6902C17.8855 12.237 18.2698 11.6094 18.5842 10.8773C18.8986 10.1452 19.0383 9.23875 19.0383 8.15799C19.0383 6.37996 18.3396 5.0203 16.9773 4.11386C15.6149 3.24228 13.484 2.78906 10.5846 2.78906H8.24411V14.7471ZM8.24411 25.2061C8.24411 25.8685 8.27904 26.4612 8.34891 26.9841C8.41877 27.5071 8.59343 27.9603 8.8729 28.3089C9.15236 28.6924 9.57155 28.9713 10.1654 29.1456C10.7243 29.3548 11.4928 29.4245 12.436 29.4245C13.6237 29.4245 14.7416 29.3199 15.7546 29.0759C16.7677 28.8667 17.641 28.4832 18.3746 27.9951C19.1082 27.4722 19.6671 26.8098 20.0863 26.0079C20.5055 25.1712 20.6801 24.1951 20.6801 22.9748C20.6801 21.65 20.4356 20.5344 19.9116 19.6977C19.3876 18.861 18.689 18.1986 17.8506 17.7105C17.0122 17.2224 16.0341 16.8738 14.9512 16.6995C13.8683 16.5252 12.7504 16.4206 11.6675 16.4206H8.27904V25.2061H8.24411ZM35.3868 27.5768C33.9545 26.1474 32.8018 24.474 31.8935 22.5565C30.9853 20.639 30.5661 18.5124 30.5661 16.1417C30.5661 13.771 31.0202 11.6443 31.8935 9.69197C32.8018 7.73963 33.9545 6.0662 35.4217 4.67167C36.854 3.27714 38.5307 2.19638 40.3822 1.46425C42.2336 0.697264 44.12 0.313769 46.0412 0.313769C47.9625 0.313769 49.8489 0.697264 51.7003 1.46425C53.5518 2.23124 55.1936 3.312 56.6608 4.67167C58.093 6.0662 59.2807 7.73963 60.189 9.69197C61.0972 11.6443 61.5164 13.8058 61.5164 16.1417C61.5164 18.4775 61.0623 20.639 60.189 22.5914C59.2807 24.5437 58.1279 26.1823 56.6608 27.5768C55.2285 28.9713 53.5518 30.0521 51.7003 30.7842C49.8489 31.5512 47.9625 31.9347 46.0412 31.9347C44.12 31.9347 42.2336 31.5512 40.3822 30.7842C38.5307 30.0172 36.854 28.9713 35.3868 27.5768ZM37.5526 25.0318C38.3211 26.4612 39.3691 27.6465 40.6965 28.6227C42.024 29.5989 43.8056 30.0869 46.0063 30.0869C47.4735 30.0869 48.7311 29.8778 49.814 29.4245C50.8969 28.9713 51.8051 28.3786 52.5737 27.6116C53.3422 26.8447 53.971 25.9731 54.46 25.0318C54.9491 24.0556 55.3333 23.0794 55.6128 22.0335C55.8923 21.0225 56.1019 19.9766 56.2066 18.9307C56.3114 17.9197 56.3464 16.9784 56.3464 16.1417C56.3464 15.2701 56.3114 14.3288 56.2066 13.3177C56.1019 12.3067 55.8923 11.2608 55.6128 10.2149C55.3333 9.16902 54.9491 8.15799 54.46 7.18182C53.971 6.20565 53.3422 5.33407 52.5737 4.60194C51.8051 3.83495 50.8969 3.24228 49.814 2.78906C48.7311 2.33583 47.4735 2.12665 46.0063 2.12665C44.5391 2.12665 43.2816 2.33583 42.1987 2.78906C41.1157 3.24228 40.2075 3.83495 39.439 4.60194C38.6705 5.36893 38.0417 6.24051 37.5526 7.18182C37.0636 8.12312 36.6793 9.16902 36.3998 10.2149C36.1204 11.2608 35.9108 12.2718 35.806 13.3177C35.7012 14.3288 35.6662 15.2701 35.6662 16.1417C35.6662 17.4665 35.806 18.8959 36.0854 20.4647C36.33 22.0335 36.819 23.5675 37.5526 25.0318ZM74.2319 20.8482C74.2319 23.707 74.8956 25.9382 76.258 27.5419C77.6204 29.1456 79.8211 29.9475 82.8253 29.9475C84.572 29.9475 85.9693 29.7034 87.0871 29.1805C88.205 28.6575 89.1132 27.8906 89.742 26.9144C90.4057 25.9382 90.8598 24.7529 91.1044 23.3235C91.3489 21.9289 91.4886 20.3601 91.4886 18.5821V5.15975C91.4886 4.25331 91.3489 3.59091 91.0345 3.24228C90.7201 2.89365 90.1961 2.68447 89.4276 2.6496L87.3316 2.51015V1.08076H97.6368V2.51015L95.7854 2.6496C95.0168 2.71933 94.4579 2.89365 94.1785 3.24228C93.8641 3.59091 93.7243 4.21845 93.7243 5.15975V19.1748C93.7243 21.0574 93.5497 22.7657 93.2353 24.3345C92.9209 25.9034 92.2921 27.2282 91.4537 28.3438C90.5804 29.4594 89.3927 30.331 87.8556 30.9585C86.3186 31.5861 84.3973 31.8998 82.0219 31.8998C79.5067 31.8998 77.4457 31.6209 75.8737 31.0282C74.3018 30.4356 73.0442 29.6337 72.1359 28.6227C71.2277 27.6117 70.6338 26.3566 70.2845 24.962C69.9701 23.5327 69.7955 21.9987 69.7955 20.2904V5.15975C69.7955 4.25331 69.6557 3.59091 69.3413 3.24228C69.0269 2.89365 68.5029 2.68447 67.7344 2.6496L65.883 2.51015V1.08076H78.354V2.51015L76.258 2.6496C75.4895 2.71933 74.9306 2.89365 74.6511 3.24228C74.3367 3.59091 74.197 4.21845 74.197 5.15975V20.8482H74.2319ZM109.549 31.1677V29.7383L111.785 29.564C112.553 29.4943 113.112 29.3199 113.426 28.9713C113.741 28.6575 113.88 28.03 113.88 27.1236V2.82392H110.562C109.13 2.82392 107.942 3.0331 106.964 3.41659C106.021 3.83495 105.182 4.32304 104.519 4.95057C103.855 5.57811 103.296 6.24051 102.877 6.97264C102.457 7.70477 102.038 8.43689 101.654 9.16902L100.327 8.57635L102.353 0.488085L103.296 0C104.414 0.732127 105.776 1.08076 107.383 1.08076H124.884C126.456 1.08076 127.819 0.732127 128.971 0L129.915 0.488085L131.941 8.57635L130.613 9.16902C130.229 8.43689 129.81 7.73963 129.391 6.97264C128.971 6.20565 128.412 5.54325 127.749 4.95057C127.085 4.32304 126.247 3.83495 125.303 3.41659C124.36 2.99823 123.138 2.82392 121.705 2.82392H118.352V27.0887C118.352 28.03 118.492 28.6575 118.806 29.0062C119.12 29.3548 119.644 29.564 120.413 29.5989L122.963 29.7383V31.1677H109.549ZM134.77 31.1677V29.7383L136.622 29.5989C137.39 29.5291 137.949 29.3548 138.229 29.0062C138.543 28.6575 138.683 28.03 138.683 27.0887V5.12489C138.683 4.21845 138.543 3.55605 138.229 3.20741C137.914 2.85878 137.39 2.6496 136.622 2.61474L134.77 2.47529V1.08076H147.241V2.51015L145.145 2.6496C144.377 2.71933 143.818 2.89365 143.538 3.24228C143.224 3.59091 143.084 4.21845 143.084 5.15975V27.1236C143.084 28.0649 143.224 28.6924 143.538 29.041C143.853 29.3897 144.377 29.5989 145.145 29.6337L147.241 29.7732V31.2026H134.77V31.1677ZM165.965 32.2485C163.834 31.5861 162.088 30.9585 160.76 30.2961C159.398 29.6686 158.07 28.7621 156.743 27.6465C155.415 26.5309 154.298 24.9272 153.354 22.8354C152.411 20.7785 151.957 18.5472 151.957 16.1417C151.957 13.771 152.411 11.6443 153.285 9.69197C154.193 7.73963 155.346 6.0662 156.813 4.67167C158.245 3.27714 159.922 2.19638 161.773 1.46425C163.625 0.697264 165.511 0.313769 167.432 0.313769C169.354 0.313769 171.24 0.697264 173.091 1.46425C174.943 2.23124 176.585 3.312 178.052 4.67167C179.484 6.0662 180.672 7.73963 181.58 9.69197C182.488 11.6443 182.907 13.8058 182.907 16.1417C182.907 18.1986 182.523 20.0463 181.755 21.7198C180.986 23.3932 180.043 24.8923 178.855 26.1823C177.702 27.5071 176.445 28.553 175.083 29.3897C173.755 30.2264 172.288 30.9237 170.786 31.4466C172.672 32.1787 176.026 33.3292 180.881 34.9678C185.737 36.6064 189.125 37.4082 191.082 37.4082C191.92 37.4082 192.723 37.2339 193.492 36.8853C194.261 36.5366 194.854 36.188 195.274 35.8394L196.252 36.8504C194.819 38.4192 193.667 39.4651 192.793 39.9532C191.92 40.4413 190.802 40.6853 189.51 40.6853C186.785 40.6853 182.803 39.5697 177.563 37.3385C172.218 35.1421 168.375 33.4338 165.965 32.2485ZM167.397 30.0869C168.864 30.0869 170.122 29.8778 171.205 29.4245C172.288 28.9713 173.196 28.3786 173.965 27.6116C174.733 26.8447 175.362 25.9731 175.851 25.0318C176.34 24.0556 176.724 23.0794 177.004 22.0335C177.283 21.0225 177.493 19.9766 177.598 18.9307C177.702 17.9197 177.737 16.9784 177.737 16.1417C177.737 15.2701 177.702 14.3288 177.598 13.3177C177.493 12.3067 177.283 11.2608 177.004 10.2149C176.724 9.16902 176.34 8.15799 175.851 7.18182C175.362 6.20565 174.733 5.33407 173.965 4.60194C173.196 3.83495 172.288 3.24228 171.205 2.78906C170.122 2.33583 168.864 2.12665 167.397 2.12665C165.93 2.12665 164.673 2.33583 163.59 2.78906C162.507 3.24228 161.598 3.83495 160.83 4.60194C160.061 5.36893 159.433 6.24051 158.944 7.18182C158.455 8.12312 158.07 9.16902 157.791 10.2149C157.511 11.2608 157.302 12.2718 157.197 13.3177C157.092 14.3288 157.057 15.2701 157.057 16.1417C157.057 17.4316 157.197 18.8959 157.511 20.5344C157.826 22.173 158.315 23.707 159.048 25.1015C159.782 26.496 160.865 27.6814 162.332 28.6575C163.764 29.5989 165.441 30.0869 167.397 30.0869ZM195.623 20.8482C195.623 23.707 196.287 25.9382 197.649 27.5419C199.011 29.1456 201.212 29.9475 204.216 29.9475C205.963 29.9475 207.36 29.7034 208.478 29.1805C209.596 28.6575 210.504 27.8906 211.133 26.9144C211.797 25.9382 212.251 24.7529 212.495 23.3235C212.74 21.9289 212.88 20.3601 212.88 18.5821V5.15975C212.88 4.25331 212.74 3.59091 212.426 3.24228C212.111 2.89365 211.587 2.68447 210.819 2.6496L208.723 2.51015V1.08076H219.028V2.51015L217.176 2.6496C216.408 2.71933 215.849 2.89365 215.569 3.24228C215.255 3.59091 215.115 4.21845 215.115 5.15975V19.1748C215.115 21.0574 214.941 22.7657 214.626 24.3345C214.312 25.9034 213.683 27.2282 212.845 28.3438C211.971 29.4594 210.784 30.331 209.247 30.9585C207.71 31.5861 205.788 31.8998 203.413 31.8998C200.898 31.8998 198.837 31.6209 197.265 31.0282C195.693 30.4356 194.435 29.6337 193.527 28.6227C192.619 27.6117 192.025 26.3566 191.676 24.962C191.361 23.5327 191.186 21.9987 191.186 20.2904V5.15975C191.186 4.25331 191.047 3.59091 190.732 3.24228C190.418 2.89365 189.894 2.68447 189.125 2.6496L187.274 2.51015V1.08076H199.745V2.51015L197.649 2.6496C196.88 2.71933 196.322 2.89365 196.042 3.24228C195.728 3.59091 195.588 4.21845 195.588 5.15975V20.8482H195.623ZM223.01 31.1677V29.7383L224.862 29.5989C225.63 29.5291 226.189 29.3897 226.468 29.1108C226.783 28.8319 226.923 28.2392 226.923 27.3327V4.91571C226.923 4.00927 226.783 3.38173 226.468 3.13769C226.154 2.89365 225.63 2.71933 224.862 2.6496L223.01 2.51015V1.08076H245.367L247.638 7.70477L246.31 8.29744C245.926 7.63504 245.507 7.0075 245.088 6.3451C244.668 5.71756 244.109 5.12489 243.446 4.60194C242.782 4.07899 241.944 3.66064 240.931 3.312C239.918 2.99823 238.66 2.82392 237.123 2.82392H231.359V15.0609H234.747C236.704 15.0609 238.031 14.6425 238.8 13.771C239.568 12.9342 239.987 11.6443 240.127 9.93601H241.524V21.9987H240.092C240.092 20.9528 239.987 20.0812 239.743 19.4188C239.533 18.7215 239.184 18.1986 238.73 17.7802C238.276 17.3619 237.717 17.083 237.018 16.9435C236.319 16.7692 235.551 16.6995 234.643 16.6995H231.324V26.3566C231.324 27.3327 231.499 28.0997 231.883 28.6227C232.267 29.1456 233.071 29.4245 234.293 29.4245H237.682C238.555 29.4245 239.428 29.3897 240.302 29.3199C241.175 29.2502 242.048 28.9713 242.887 28.4832C244.249 27.7511 245.297 26.8447 245.961 25.8336C246.66 24.7877 247.218 23.8116 247.673 22.8703L249 23.2886L246.939 31.1677H223.01ZM64.4508 78.2679V76.8385L66.3022 76.699C67.0707 76.6293 67.6296 76.4899 67.9091 76.2109C68.2235 75.932 68.3632 75.3394 68.3632 74.4329V52.0159C68.3632 51.1094 68.2235 50.4819 67.9091 50.2379C67.5947 49.959 67.0707 49.8195 66.3022 49.7498L64.4508 49.6103V48.1809H76.7121C77.795 48.1809 78.9827 48.2507 80.2403 48.3901C81.5328 48.5296 82.7205 48.8085 83.8384 49.2966C84.9562 49.7498 85.8994 50.447 86.633 51.3883C87.3666 52.3297 87.7508 53.5847 87.7508 55.1884C87.7508 56.3738 87.5063 57.3848 87.0173 58.2215C86.5282 59.0583 85.9343 59.7555 85.2706 60.3133C84.6069 60.8711 83.9083 61.2895 83.2445 61.5684C82.5459 61.8473 82.0219 62.0216 81.6726 62.1262C81.952 62.1262 82.3363 62.1959 82.8603 62.3005C83.3843 62.4051 83.9432 62.5794 84.572 62.8235C85.2008 63.0675 85.7946 63.3813 86.4583 63.7648C87.0871 64.1483 87.681 64.6364 88.205 65.1942C88.729 65.752 89.1482 66.4144 89.4975 67.1814C89.8468 67.9484 90.0215 68.7851 90.0215 69.7613C90.0215 72.7246 88.7988 74.8861 86.3186 76.2458C83.8384 77.6055 80.2403 78.3027 75.5593 78.3027H64.4508V78.2679ZM72.6949 61.8473H73.8127C74.721 61.8473 75.5593 61.8124 76.3279 61.7079C77.0614 61.6033 77.6902 61.5335 78.2142 61.4289C78.843 61.3244 79.4718 61.1152 80.1006 60.8711C80.7294 60.6271 81.2883 60.2436 81.8123 59.7904C82.3363 59.3372 82.7205 58.7096 83.0349 57.9775C83.3493 57.2454 83.4891 56.3389 83.4891 55.2582C83.4891 53.4801 82.7904 52.1205 81.428 51.214C80.0657 50.3076 77.9348 49.8544 75.0354 49.8544H72.6949V61.8473ZM72.6949 72.3063C72.6949 72.9687 72.7298 73.5613 72.7997 74.0843C72.8695 74.6072 73.0442 75.0605 73.3237 75.4091C73.6031 75.7926 74.0223 76.0715 74.6162 76.2458C75.1751 76.455 75.9436 76.5247 76.8868 76.5247C78.0745 76.5247 79.1923 76.4201 80.2054 76.1761C81.2184 75.9669 82.0918 75.5834 82.8253 75.0953C83.5589 74.5724 84.1179 73.91 84.537 73.1081C84.9562 72.2714 85.1309 71.2952 85.1309 70.075C85.1309 68.7502 84.8864 67.6346 84.3624 66.7979C83.8384 65.9612 83.1397 65.2988 82.3014 64.8107C81.463 64.3226 80.4849 63.974 79.4019 63.7996C78.319 63.6253 77.2012 63.5207 76.1183 63.5207H72.7298V72.3063H72.6949ZM91.838 78.2679V76.8385L92.9558 76.699C93.7243 76.5944 94.3531 76.2807 94.8771 75.688C95.3662 75.0953 95.7854 74.3632 96.1696 73.4916L106.824 47.902H109.025L120.413 74.1889C120.727 74.921 121.077 75.5137 121.391 75.9669C121.705 76.3853 122.264 76.6293 123.033 76.699L124.43 76.8385V78.2679H111.715V76.8385L113.147 76.699C114.614 76.5944 115.348 76.0366 115.348 74.9907C115.348 74.4329 115.173 73.7357 114.859 72.9338L112.763 67.9135H100.816L98.6498 73.2476C98.5101 73.6659 98.3704 74.0494 98.2656 74.3981C98.1608 74.7467 98.0909 75.0256 98.0909 75.2696C98.0909 75.7926 98.2656 76.1761 98.58 76.3504C98.8944 76.5247 99.3485 76.6642 99.8725 76.699L101.13 76.8385V78.2679H91.838ZM101.514 66.0658H111.959L106.51 53.759L101.514 66.0658ZM127.225 78.2679V76.8385L129.076 76.699C129.845 76.6293 130.404 76.4899 130.683 76.2109C130.997 75.932 131.137 75.3394 131.137 74.4329V52.0159C131.137 51.1094 130.997 50.4819 130.683 50.2379C130.369 49.959 129.845 49.8195 129.076 49.7498L127.225 49.6103V48.1809H140.814C142.071 48.1809 143.364 48.3204 144.656 48.5993C145.984 48.8782 147.171 49.3314 148.254 49.9241C149.337 50.5516 150.21 51.3883 150.909 52.4342C151.608 53.4801 151.957 54.7701 151.957 56.3389C151.957 57.6637 151.608 58.8142 150.944 59.7904C150.28 60.7317 149.512 61.5335 148.638 62.1959C147.765 62.8235 146.927 63.3116 146.088 63.6602C145.25 64.0088 144.691 64.218 144.377 64.3226C144.761 64.5666 145.145 64.8455 145.564 65.1593C145.984 65.4731 146.368 65.8914 146.787 66.3447C147.206 66.7979 147.66 67.3557 148.114 67.9832C148.604 68.6108 149.128 69.3778 149.686 70.2493C150.106 70.9117 150.455 71.4696 150.734 71.8879C151.014 72.3411 151.258 72.7246 151.468 73.0384C151.678 73.3522 151.852 73.6659 151.992 73.8751C152.167 74.1191 152.341 74.3283 152.516 74.5375C153.215 75.3742 153.843 75.932 154.437 76.1761C155.031 76.455 155.73 76.5944 156.498 76.6642L157.337 76.7688V78.233H149.442L144.516 70.9466C143.992 70.2145 143.503 69.5172 142.979 68.8548C142.455 68.1575 141.896 67.5649 141.268 67.0071C140.639 66.4841 139.905 66.0309 139.102 65.7171C138.263 65.4034 137.32 65.229 136.202 65.229H135.539V74.6072C135.539 75.4091 135.678 75.932 135.993 76.2109C136.307 76.455 136.831 76.6293 137.6 76.6642L139.451 76.8036V78.233H127.225V78.2679ZM135.574 63.451H138.648C139.486 63.451 140.394 63.3464 141.407 63.1024C142.42 62.8583 143.329 62.4748 144.202 61.917C145.04 61.3592 145.774 60.662 146.333 59.7555C146.892 58.8839 147.171 57.8032 147.171 56.5132C147.171 54.1077 146.438 52.3994 145.005 51.3883C143.573 50.3773 141.617 49.8892 139.172 49.8892H135.574V63.451ZM162.122 78.2679L161.913 69.0989H163.31C163.59 70.0402 163.904 71.0163 164.288 71.9925C164.673 72.9687 165.197 73.8402 165.86 74.5724C166.524 75.3394 167.362 75.9669 168.34 76.4201C169.354 76.9082 170.576 77.1523 172.078 77.1523C173.336 77.1523 174.384 76.9779 175.292 76.6642C176.165 76.3504 176.899 75.8972 177.458 75.3742C178.017 74.8513 178.401 74.2586 178.681 73.5962C178.925 72.9338 179.065 72.2714 179.065 71.6439C179.065 71.0163 178.995 70.3888 178.855 69.7961C178.715 69.2383 178.401 68.7154 177.982 68.1924C177.563 67.7043 176.934 67.2511 176.13 66.8327C175.327 66.4144 174.314 66.0309 173.021 65.6823L169.947 64.7758C169.354 64.6015 168.62 64.3575 167.747 64.0437C166.873 63.7299 166.035 63.2767 165.231 62.6492C164.428 62.0216 163.729 61.2546 163.17 60.2785C162.612 59.3023 162.332 58.0821 162.332 56.583C162.332 54.8747 162.646 53.4453 163.275 52.2948C163.904 51.1443 164.707 50.203 165.686 49.4709C166.664 48.7387 167.747 48.2158 168.969 47.902C170.157 47.5883 171.345 47.4488 172.463 47.4488C173.406 47.4488 174.279 47.5185 175.048 47.658C175.816 47.7974 176.515 47.9718 177.144 48.1809C177.772 48.3901 178.331 48.5993 178.785 48.8433C179.239 49.0874 179.659 49.2966 180.008 49.4709L180.532 48.1461H181.929L182.383 57.4197H180.986C180.742 56.6178 180.462 55.7463 180.113 54.7701C179.763 53.8288 179.274 52.9223 178.646 52.1205C178.017 51.3186 177.178 50.6562 176.165 50.0984C175.152 49.5755 173.825 49.2966 172.218 49.2966C170.402 49.2966 168.934 49.8195 167.816 50.8654C166.699 51.9113 166.175 53.3407 166.175 55.1536C166.175 56.6527 166.629 57.8032 167.502 58.605C168.375 59.4417 169.703 60.1041 171.484 60.5922L175.083 61.6033C175.991 61.8822 176.899 62.1959 177.842 62.5794C178.785 62.9629 179.659 63.4859 180.427 64.1134C181.231 64.741 181.859 65.5428 182.383 66.519C182.907 67.4603 183.152 68.6456 183.152 70.0402C183.152 71.365 182.872 72.5503 182.314 73.6659C181.755 74.7816 180.986 75.7229 179.973 76.4898C178.995 77.2917 177.807 77.8844 176.445 78.3376C175.083 78.7908 173.615 79 172.078 79C171.03 79 170.087 78.8954 169.284 78.7211C168.445 78.5468 167.747 78.3376 167.118 78.0936C166.489 77.8495 165.93 77.6055 165.441 77.3266C164.952 77.0477 164.498 76.8036 164.114 76.6293L163.66 78.233H162.122V78.2679Z" fill="#97573F"/>
</svg>
