<svg width="160" height="79" viewBox="0 0 160 79" fill="none" xmlns="http://www.w3.org/2000/svg">
<g clip-path="url(#clip0_134_173)">
<mask id="mask0_134_173" style="mask-type:luminance" maskUnits="userSpaceOnUse" x="0" y="0" width="160" height="79">
<path d="M160 0H0V78.8214H160V0Z" fill="white"/>
</mask>
<g mask="url(#mask0_134_173)">
<path d="M160 0.294434H80V78.5265H160V0.294434Z" fill="#E00A8C"/>
<path d="M43.6095 77.2003C43.4622 76.7584 43.3149 76.4637 43.1676 75.8744C43.1676 75.5797 43.1676 75.1377 43.0202 74.6957C42.7256 73.6644 42.4309 72.7804 42.2836 71.8965C41.9889 71.0125 41.8416 70.1285 41.6943 69.2445C41.3996 67.7712 41.2523 66.4453 41.1049 65.1193C40.9576 63.646 40.663 62.32 40.3683 60.9941C40.0736 60.6994 39.6316 60.4048 39.1897 60.1101C38.895 59.6681 38.7477 59.2261 38.6003 58.7841C38.6003 58.7841 38.3057 58.7841 38.011 58.6368C38.011 58.6368 37.7164 58.6368 37.569 58.1948C36.9797 57.7528 36.6851 57.1635 36.2431 56.5742C35.9484 55.8375 35.8011 55.1009 35.5064 54.5116C35.2118 54.3642 34.9171 54.2169 34.6224 54.3642C34.1804 54.3642 33.8858 54.3642 33.4438 54.3642C33.4438 55.5429 33.4438 56.4269 33.2965 57.3108C33.1491 58.3421 32.8545 59.2261 32.8545 60.1101C32.2652 60.5521 31.9705 61.2887 31.5285 61.7307C31.0865 62.32 30.6445 62.762 29.9079 62.6147C29.6132 62.6147 29.1712 62.6147 28.5819 62.4674C28.2873 62.4674 27.8453 62.32 27.6979 62.9094C27.6979 63.204 27.5506 63.4987 27.5506 63.7933C27.4033 64.088 27.256 64.53 26.9613 64.6773C26.9613 64.972 26.814 65.414 26.814 65.5613C26.814 65.856 26.814 66.1506 26.814 66.4453C27.1086 67.1819 27.4033 67.7712 27.6979 68.5079C27.9926 69.0972 28.4346 69.6865 28.8766 70.4232C29.1712 71.1598 29.6132 71.7491 30.0552 72.3385C30.4972 72.9278 30.9392 73.5171 31.2339 74.4011C31.9705 75.727 32.8545 76.9057 33.5911 78.2316H44.0515C44.0515 77.7897 43.9042 77.3477 43.7569 76.9057L43.6095 77.2003Z" fill="#004FA3"/>
<path d="M51.418 78.5266C51.418 78.2319 51.418 78.0845 51.418 78.0845C52.302 76.9059 50.3867 76.1692 50.976 75.1379C50.8287 74.6959 50.976 73.9593 50.2394 73.6646C49.7974 73.2227 50.3867 72.928 50.3867 72.486C50.3867 72.044 50.0921 71.7494 49.7974 71.3074C49.5027 70.8654 50.0921 70.4234 49.9447 69.9814H49.5027C48.0294 71.0127 47.4401 71.8967 46.8508 73.5173C46.8508 73.5173 46.8508 73.6646 47.2928 73.6646C47.5874 73.8119 48.3241 74.1066 48.1768 74.9906C48.0294 75.8746 46.2615 75.2852 46.8508 76.6112C47.1455 77.2005 48.0294 76.6112 48.1768 77.3479C48.4714 77.7898 48.3241 78.0845 48.1768 78.3792H51.1234L51.418 78.5266Z" fill="#004FA3"/>
<path d="M80 10.1655V0.294434H0V5.00899C1.17864 5.00899 2.20994 4.71433 2.20994 4.71433C2.5046 4.71433 2.79926 4.71433 3.09392 4.71433C3.53591 4.71433 3.83057 4.71433 4.27256 4.567C4.71455 4.567 5.00921 4.41967 5.4512 4.41967C5.89319 4.27234 6.18785 4.12501 6.77716 4.27234C8.69245 3.97768 10.9024 3.97768 12.965 3.83035C15.175 3.83035 17.3849 3.83035 19.5948 3.68302C21.6575 3.83035 23.5727 4.27234 25.6354 4.567C27.5506 5.15632 29.4659 5.5983 31.5285 6.18762C32.5599 6.18762 33.7385 5.89296 34.9171 5.74563C36.0958 5.45098 37.1271 5.30365 38.3057 5.15632C39.1897 5.00899 39.9263 5.15632 40.8103 5.30365C41.547 5.45098 42.2836 5.59831 43.3149 5.45098C44.1989 5.89296 45.2302 6.18762 46.1142 6.33495C47.1455 6.62961 48.1768 6.92427 48.9134 7.66092C50.0921 8.25024 50.9761 8.83956 51.86 9.57621C52.744 10.3129 53.4807 11.0495 54.07 12.0808C54.512 12.9648 54.8066 13.9961 54.954 15.0274C55.1013 15.9114 55.2486 17.09 55.5433 17.8267C55.396 19.0053 55.5433 20.0366 55.9853 20.7733C56.2799 21.8046 56.8692 22.6886 57.1639 23.5725C57.1639 24.6038 57.6059 25.4878 57.9006 26.5191C58.1952 27.4031 58.4899 28.2871 58.6372 29.3184C58.6372 30.3497 58.7845 31.381 58.7845 32.265C58.7845 33.2963 58.7845 34.3276 58.6372 35.2116C58.3425 35.3589 58.3425 35.6536 58.1952 35.9482C58.1952 36.0956 58.1952 36.3902 58.0479 36.6849C57.7532 37.4215 57.6059 38.1582 57.3112 38.8948C57.1639 39.7788 57.0166 40.6628 56.8692 41.3994C56.4273 42.4307 56.4273 43.462 56.7219 44.6407C56.7219 45.672 57.0166 46.7033 56.8692 47.8819C56.8692 49.6499 56.8692 51.2705 56.4273 52.8911C56.2799 54.5118 55.9853 56.1324 55.8379 57.9003C55.8379 58.0477 55.8379 58.195 55.8379 58.4897C55.6906 58.637 55.5433 58.9317 55.3959 59.2263C56.7219 59.2263 58.0479 59.079 59.3738 58.7843C60.5525 58.4897 61.8785 58.0477 62.9098 57.4584C63.6464 56.7217 64.3831 56.2797 65.1197 55.8377C65.8564 55.2484 66.4457 54.6591 67.035 53.9224C67.035 53.7751 67.3297 53.6278 67.477 53.7751C67.6243 53.7751 67.919 53.7751 68.0663 53.6278C68.6556 54.2171 68.6556 54.8064 68.6556 55.5431C68.5083 56.1324 68.2136 56.869 68.2136 57.4584C67.919 57.753 67.7716 58.195 67.6243 58.637C67.6243 58.9317 67.6243 59.3736 67.6243 59.8156C68.0663 59.521 68.6556 59.2263 69.0976 58.9317C69.5396 58.637 69.9816 58.195 70.4236 57.753C70.7182 57.6057 70.8656 57.311 71.1602 57.0164C71.4549 56.869 71.7495 56.7217 72.0442 56.869C72.1915 57.1637 72.1915 57.4584 72.1915 57.6057C72.1915 57.9003 72.1915 58.195 72.1915 58.4897V58.637C72.1915 58.7843 72.1915 58.9317 72.1915 59.079C72.0442 59.3736 71.8969 59.8156 71.7495 59.963C71.6022 60.405 71.3076 60.6996 71.0129 60.8469H71.1602C70.8656 61.2889 70.5709 61.7309 70.2762 62.1729C69.9816 62.7622 69.6869 63.2042 69.3923 63.6462C69.3923 63.6462 69.3923 63.6462 69.2449 63.6462C69.2449 63.6462 69.0976 63.7935 69.0976 64.0882H68.9503L68.8029 64.2355C67.919 65.1195 66.8877 65.5615 66.0037 65.8561C64.825 66.2981 63.7937 66.7401 62.7624 67.0348C61.4365 67.1821 60.1105 67.4768 58.6372 67.7714C57.3112 67.7714 55.8379 68.0661 54.512 67.7714C54.2173 68.2134 54.2173 68.6554 54.07 69.0974C54.07 69.5394 54.07 69.9814 54.07 70.4234C54.07 72.1913 53.628 73.9593 53.628 75.7272C53.628 76.6112 53.7753 77.4952 54.07 78.3792H68.9503C69.2449 78.0845 69.3923 77.9372 69.6869 77.6425C69.9816 77.0532 70.2762 76.4639 70.4236 75.7272C70.5709 74.9906 70.7182 74.2539 70.8656 73.5173C70.8656 72.7806 70.8656 71.8967 71.0129 71.3073C71.3076 70.5707 71.7495 69.9814 72.4862 69.6867C72.6335 69.6867 72.9282 69.2447 73.2228 69.0974C73.5175 69.0974 73.9595 68.9501 74.4015 69.0974C74.9908 69.3921 75.4328 69.834 75.7274 70.4234C76.0221 70.8654 76.1694 71.4547 76.4641 71.8967C77.2007 72.486 77.9374 73.0753 78.3794 73.8119C78.9687 74.5486 79.2634 75.2852 79.116 76.4639C78.8214 76.9059 78.3794 77.2005 77.7901 77.3479C77.3481 77.6425 76.7588 77.9372 76.4641 78.5265H80V32.707H73.2228V10.1655H80Z" fill="#004FA3"/>
<path d="M71.6022 78.5263C71.8968 78.2316 71.6022 77.7897 71.7495 77.3477C72.0442 76.9057 72.1915 76.169 72.9281 76.169C73.2228 76.0217 73.3701 75.4324 73.3701 74.9904C73.3701 74.6957 73.0755 74.1064 72.6335 74.1064C72.6335 73.0751 72.4862 71.7491 73.3701 71.1598C73.6648 71.1598 73.8121 70.7178 74.1068 70.7178C74.5488 71.4545 73.3701 71.7491 73.9595 72.3385C74.2541 72.4858 74.2541 73.0751 74.6961 73.0751C75.1381 74.1064 76.4641 73.9591 77.348 74.5484C77.348 74.9904 77.348 75.2851 77.348 75.8744C77.0534 75.8744 76.4641 76.4637 76.0221 76.3164C75.7274 76.0217 75.2854 75.5797 74.8434 75.8744C74.1068 76.3164 74.4014 77.3477 74.4014 78.379H71.6022" fill="#004FA3"/>
<path d="M56.5746 29.9077C55.3959 28.7291 55.8379 26.8138 55.2486 25.3405C54.5119 24.4565 54.07 22.8359 52.5967 22.6886C52.302 24.0145 53.3333 24.4565 54.07 25.4878C54.6593 27.5504 55.3959 29.7604 55.3959 31.823C54.5119 32.4123 53.628 32.5596 52.5967 32.707C52.1547 32.1177 53.186 31.6757 53.186 31.0863C53.628 30.2024 52.5967 30.3497 52.302 29.9077C52.0073 29.0237 53.0386 28.8764 53.186 28.2871C53.7753 27.1084 52.1547 27.2558 51.7127 26.8138C51.2707 26.0771 52.302 26.0771 51.86 25.4878C51.1234 24.6038 50.976 23.7199 50.3867 22.8359C49.5027 22.0992 48.1768 21.8046 47.7348 20.7733C48.0294 20.1839 48.6188 20.3313 48.9134 20.0366C49.3554 19.5946 49.6501 19.0053 49.6501 18.5633H49.2081C49.2081 18.5633 48.6188 18.7107 48.4714 18.416C48.7661 17.09 48.4714 15.7641 47.8821 14.7328C47.8821 13.9961 47.1455 13.5541 47.1455 13.1121C47.7348 13.1121 48.4714 12.6701 49.0607 13.2595C49.7974 13.8488 50.2394 14.5854 50.534 15.3221C51.418 16.9427 51.418 18.5633 51.86 20.3313H52.0073C52.0073 20.0366 52.4493 19.8893 52.1547 19.5946C52.8913 17.6793 51.5653 15.9114 51.7127 13.9961C51.5653 13.5541 50.976 13.1121 51.1234 12.6701L49.5027 10.7549C48.3241 9.72353 46.7035 9.5762 45.5248 8.5449C43.9042 8.5449 42.5782 8.5449 40.9576 8.10291C40.6629 8.25024 40.0736 8.10291 39.779 8.25024C39.337 8.69223 39.9263 8.83956 40.221 8.98689C41.2523 8.98689 41.9889 9.72353 42.8729 9.87086C43.3149 10.0182 43.7569 10.3129 43.7569 10.6075C43.4622 11.4915 42.2836 11.7862 41.8416 12.5228C41.8416 13.1121 42.2836 13.2595 42.4309 13.7014C42.7256 14.2908 42.1362 14.5854 41.8416 14.8801C40.8103 14.8801 39.6316 14.5854 38.453 14.7328C38.1583 14.8801 37.569 14.7328 37.569 15.1747C38.1583 15.4694 38.895 15.7641 39.4843 16.3534C39.1896 18.5633 36.5377 17.532 35.2118 18.416C36.3904 18.416 37.569 18.5633 38.6003 19.1526C37.569 19.8893 36.685 21.0679 35.2118 21.2153L35.9484 22.3939C35.6537 22.9832 35.0644 23.2779 34.7698 23.8672C34.3278 24.3092 34.1804 24.8985 33.5911 25.4878C32.8545 25.4878 32.7071 26.5191 31.9705 26.8138C30.7919 27.4031 29.0239 28.5817 27.6979 27.4031C28.4346 26.2245 30.2025 25.3405 31.5285 24.4565C32.1178 23.4252 32.4125 22.2466 32.1178 21.0679C32.1178 20.6259 31.6758 20.3313 31.6758 19.742C31.0865 19.3 30.9392 18.416 30.2025 18.1213C29.7606 16.648 28.5819 16.0587 27.5506 15.1747C27.5506 14.7328 26.814 15.1747 26.814 14.5854C25.93 14.1434 24.7513 13.4068 24.0147 13.2595C24.0147 13.7014 24.3094 14.2908 24.7513 14.4381C24.8987 15.3221 26.0773 15.3221 26.2246 16.3534C26.6666 16.648 26.9613 17.2374 27.5506 17.532H27.4033C27.4033 17.6793 27.9926 18.2687 27.9926 18.2687C28.1399 19.0053 27.5506 19.5946 27.2559 20.3313C26.5193 20.0366 26.2246 19.0053 25.3407 18.7107C24.7513 18.7107 24.3094 18.1213 23.8674 17.974C23.278 17.532 24.0147 16.9427 23.8674 16.5007C23.278 15.7641 22.3941 16.0587 22.2467 15.1747C21.9521 14.5854 21.6574 14.2908 20.9208 13.9961C20.3315 13.8488 19.4475 13.9961 19.0055 13.2595C19.0055 11.1968 16.6482 13.1121 16.2062 11.3442C15.0276 10.9022 13.8489 11.0495 12.8176 10.9022H12.3757C11.639 10.7549 11.197 10.1655 10.755 9.72353C11.197 8.98689 12.3757 9.5762 12.965 9.13421C18.1215 8.10291 23.278 9.13421 27.4033 11.3442C27.4033 12.0808 27.8453 12.6701 27.9926 13.2595C28.8766 13.1121 29.4659 12.0808 30.2025 11.7862C31.2338 12.5228 32.5598 13.1121 33.1491 14.2908C33.7385 14.4381 34.1804 14.8801 34.7698 14.8801C35.2118 14.4381 35.6537 13.7014 35.6537 12.9648C35.8011 12.6701 35.2118 12.3755 35.2118 11.7862C34.3278 11.0495 33.2965 10.1655 32.2652 9.72353C27.6979 7.80825 22.9834 6.33495 17.8269 5.74563C15.3222 5.74563 12.523 5.45097 10.313 5.89296C10.313 5.89296 10.0184 5.89296 9.87105 5.74563C6.92446 6.04029 4.41985 6.48228 1.76792 7.0716C1.76792 7.0716 0.88394 7.21893 -0.442026 7.51359V8.83956C0.736611 8.69223 1.62059 8.5449 1.62059 8.5449C3.53587 8.25024 5.1565 8.10291 6.92446 7.95558H7.07179C7.21912 8.39757 7.07179 8.5449 7.07179 8.5449C5.1565 8.98689 3.24122 9.28154 1.47326 10.0182C1.47326 10.0182 0.589282 10.3129 -0.589355 10.7549V11.0495C-0.442026 11.0495 -0.147366 11.0495 -3.73125e-05 11.0495C0.736611 11.0495 1.62059 10.9022 1.62059 10.9022C4.86184 10.4602 8.69241 10.4602 11.3443 12.0808C11.3443 12.3755 11.4917 12.8175 11.3443 12.9648C9.57639 12.9648 7.07179 12.2281 5.89315 13.8488C4.86184 13.8488 4.41985 12.8175 3.6832 13.2595C3.24122 13.8488 2.6519 14.1434 2.20991 14.4381C1.91525 14.4381 0.88394 15.1747 -0.442026 15.9114V19.742C-3.73125e-05 19.742 0.441952 19.742 0.589282 19.742C1.03127 19.742 1.47326 19.5946 1.47326 19.5946C2.35724 19.4473 3.24122 19.0053 4.12519 18.5633C8.83974 17.2374 14.5856 16.5007 19.5948 17.6793L21.2154 18.416C21.5101 18.7107 21.0681 19.0053 21.2154 19.5946C19.0055 19.4473 16.9429 18.7107 14.5856 19.0053C14.5856 19.3 15.4696 19.742 15.0276 20.1839C13.7016 19.742 11.9337 19.8893 10.4604 19.742C10.4604 19.742 10.4604 19.742 10.313 19.742C9.72372 20.0366 10.9024 20.3313 10.4604 20.9206C9.28173 21.2153 7.95576 20.3313 6.92446 20.7733C7.07179 21.0679 7.36645 21.2153 7.07179 21.6572C6.33514 22.2466 5.00917 21.6572 4.12519 21.8046C3.24122 22.9832 1.62059 24.0145 2.20991 25.7825C2.20991 26.0771 1.76792 26.3718 1.47326 26.5191C1.47326 26.5191 0.736611 26.8138 -0.442026 27.2558V29.0237C0.589282 28.5817 1.62059 28.1397 1.62059 28.1397C1.91525 28.1397 2.35724 27.8451 2.6519 27.6978C7.07179 25.7825 11.7863 24.4565 16.7955 24.0145C17.8268 24.0145 19.1528 24.0145 20.1841 24.0145V24.7512C20.1841 24.7512 20.1841 24.7512 20.1841 24.8985C19.4475 25.1932 18.5635 25.1932 17.9742 25.4878C16.7955 25.9298 15.6169 26.2245 14.5856 26.6665C13.9963 26.9611 13.407 26.9611 13.2596 27.4031C12.6703 27.5504 12.3757 28.1397 11.7863 27.8451C11.3443 27.5504 10.755 27.5504 10.313 27.2558C9.87105 27.6978 9.42906 28.2871 9.42906 28.7291C8.54508 30.055 5.89315 27.6978 6.48247 30.3497C5.89315 30.939 4.56718 30.3497 3.83053 30.497C3.38855 30.6444 3.09389 31.0863 2.94656 31.381C2.94656 31.5283 2.94656 31.6757 2.94656 31.823C2.94656 31.823 2.94656 31.9703 2.79923 31.9703C3.53587 33.0016 3.83053 34.1803 4.27252 35.3589C3.83053 36.0956 3.38855 36.3902 2.79923 36.9795C2.79923 36.9795 1.47326 37.7162 -0.147366 38.8948V42.2834L1.62059 40.5154C5.1565 35.6536 10.4604 32.1176 16.5009 30.7917L16.9429 31.6757V32.4123C15.9116 32.707 14.7329 33.0016 13.7016 33.5909C12.3757 33.4436 12.6703 35.0642 11.7863 35.5062C11.4917 36.5375 10.4604 36.0956 9.72372 36.3902C9.57639 36.9795 9.87105 38.1582 8.98707 38.3055C8.25042 38.4528 7.36645 38.3055 6.92446 38.4528C6.6298 38.4528 6.33514 38.6002 6.18781 39.0421C6.18781 39.6315 6.77713 39.9261 6.6298 40.6628C6.18781 41.2521 5.45116 41.5467 5.00917 41.9887C4.56718 41.9887 5.00917 42.7254 4.56718 42.7254C4.27252 43.6094 5.00917 43.904 5.30383 44.346C6.04048 44.6407 6.92446 45.5246 7.51378 45.8193C7.66111 46.2613 7.21912 46.7033 7.07179 47.1453C5.30383 47.2926 3.24122 46.4086 1.62059 45.23C1.62059 45.23 0.88394 45.672 -3.73125e-05 46.2613V50.9758C2.20991 51.2705 3.97786 51.5652 4.41985 51.7125C9.72372 54.3644 17.2375 51.2705 21.9521 55.2484C23.5727 56.5744 25.6353 56.7217 26.9613 58.195C28.1399 58.7843 28.7292 60.4049 30.3499 59.8156C30.3499 59.2263 31.2338 58.7843 30.9392 58.195C31.2338 57.753 30.7919 57.1637 31.0865 56.7217C30.9392 55.1011 31.0865 53.1858 29.9079 51.8598C29.3186 51.2705 29.4659 50.2392 29.0239 49.6499C29.0239 48.0293 28.5819 46.556 28.4346 44.9353C28.4346 41.9887 28.4346 39.4841 29.6132 36.8322C29.6132 36.2429 29.9079 35.6536 30.3499 35.3589C30.6445 34.1803 31.3812 33.4436 32.5598 32.8543C33.2965 32.4123 33.1491 33.5909 33.8858 33.5909C33.8858 33.5909 33.8858 33.5909 34.0331 33.7383C33.4438 34.1803 33.1491 34.7696 32.5598 35.2116C32.2652 35.2116 32.2652 35.8009 31.9705 35.8009C31.0865 37.8635 31.0865 40.3681 30.6445 42.7254C31.0865 43.6094 30.6445 44.9353 31.0865 45.9666C31.0865 47.5873 31.6758 49.0606 32.4125 50.2392C33.0018 50.8285 34.0331 50.9758 34.9171 50.8285C35.2118 50.0919 34.9171 49.0606 35.5064 48.3239C35.8011 48.3239 36.2431 48.3239 36.2431 47.7346C36.2431 47.4399 35.8011 47.2926 35.8011 47.1453C35.6537 46.8506 35.5064 46.8506 35.3591 46.556C35.3591 45.3773 36.685 45.5246 36.9797 44.6407C36.685 44.4933 36.3904 44.1987 36.2431 44.0514C35.9484 42.8727 35.2118 41.6941 34.7698 40.6628C34.9171 40.5154 35.2118 40.2208 35.5064 40.2208C36.5377 41.1048 38.1583 40.9574 38.453 42.4307C39.4843 44.346 38.453 46.114 37.8637 47.8819C37.2744 49.2079 37.2744 50.8285 37.127 52.4491C37.4217 53.3331 38.011 54.3644 38.7477 54.6591C39.1896 54.8064 39.337 54.3644 39.6316 54.2171C40.5156 52.5965 42.4309 52.8911 43.9042 52.5965C44.1989 52.0072 44.1989 51.5652 44.0515 50.9758C44.3462 49.9445 45.3775 49.7972 46.1141 49.0606C46.7035 49.3552 47.7348 49.0606 48.3241 49.5025C48.6187 49.9445 49.0607 50.3865 48.7661 50.9758C48.7661 51.4178 48.0294 51.2705 47.5874 51.4178C45.9668 52.7438 47.5874 54.8064 47.1455 56.427C48.4714 58.195 50.3867 59.3736 52.5967 58.9316C52.5967 58.3423 53.0386 57.9003 52.744 57.311C52.744 57.1637 52.744 56.7217 52.302 56.7217C52.0073 56.7217 52.0073 56.7217 51.86 56.2797L53.3333 54.3644V52.3018C53.3333 51.2705 52.744 52.3018 52.4493 51.7125C52.5966 50.5339 53.3333 49.7972 53.7753 48.7659C53.9226 46.2613 53.3333 44.0514 53.628 41.6941C54.9539 39.7788 54.9539 36.9795 55.6906 34.6223C55.9852 33.149 55.2486 31.381 56.1326 30.055L56.5746 29.9077ZM14.8803 50.0919C13.1123 49.3552 10.755 50.0919 8.83974 49.5025C8.25042 47.2926 9.28173 44.9353 10.1657 42.8727C11.3443 40.5154 13.407 38.4528 15.7642 36.2429C16.6482 35.6536 17.5322 34.9169 18.5635 34.6223C19.1528 34.6223 19.7421 34.3276 19.8895 35.0642C19.8895 35.3589 19.7421 35.2116 19.7421 35.5062C19.0055 36.5375 18.5635 37.2742 17.8269 38.3055C17.0902 38.3055 16.0589 38.0108 15.7642 38.7475C15.7642 39.3368 16.7955 39.6315 16.2062 40.2208C15.6169 40.6628 14.4383 40.6628 14.5856 41.6941C14.8803 41.9887 14.8803 42.4307 14.5856 42.5781L13.2596 43.7567C13.407 44.0514 13.5543 44.346 13.7016 44.9353C13.2596 45.3773 12.3757 45.9666 12.3757 46.556C12.2283 46.556 11.9337 46.556 11.9337 46.7033C12.3757 47.4399 13.7016 47.7346 14.5856 48.1766C14.8803 48.3239 15.3222 48.4712 15.3222 48.7659C15.1749 49.0606 15.3222 49.6499 14.8803 50.0919ZM19.7421 45.3773C19.3001 45.5246 18.7108 45.8193 18.4162 46.2613C18.7108 46.7033 18.4162 46.9979 18.5635 47.4399C19.1528 48.1766 21.0681 48.1766 20.4788 49.6499C20.4788 49.9445 20.1841 50.0919 20.0368 50.2392C18.7108 50.2392 16.7955 50.3865 15.7642 49.5025C16.2062 45.672 16.9429 41.5467 19.8895 39.0421C20.1841 39.0421 20.4788 39.1895 20.6261 39.4841C21.2154 40.9574 19.7421 42.4307 19.1528 43.6094C19.1528 44.346 20.7734 44.6407 19.7421 45.5246V45.3773ZM26.9613 55.2484C25.7826 54.9537 25.1933 53.6278 24.162 53.0385C23.4254 52.4491 22.8361 51.8598 22.0994 51.4178C21.9521 50.9758 20.9208 50.6812 21.5101 49.9445C21.5101 48.0293 21.0681 45.8193 21.6574 44.0514C21.9521 43.3147 21.9521 42.2834 22.2467 41.5468C22.9834 41.5468 23.4254 42.2834 23.72 42.7254C23.72 44.346 23.278 46.4086 24.604 47.2926C24.3094 48.1766 23.4254 48.7659 24.0147 49.7972C24.0147 50.8285 25.1933 50.8285 25.488 51.4178C26.0773 51.7125 26.5193 52.4491 26.9613 52.8911C26.9613 53.6278 27.1086 54.6591 26.814 55.3957L26.9613 55.2484ZM40.0736 24.8985H43.3149C44.3462 25.7825 45.0828 26.5191 45.9668 27.4031C46.1141 27.6978 45.9668 27.9924 46.1141 28.1397C45.8195 28.5817 45.8195 29.3184 45.2302 29.3184C44.6409 28.2871 43.4622 27.6978 42.4309 27.1084C41.9889 27.4031 41.5469 27.1084 40.9576 27.2558C40.9576 27.6978 40.9576 28.2871 40.3683 28.4344H39.6316C39.4843 27.6978 39.6316 27.1084 39.1897 26.5191C39.337 26.0771 38.895 24.7512 40.0736 25.0458V24.8985ZM43.6095 29.7604C43.6095 30.6444 43.1676 31.5283 42.8729 32.4123C42.1362 31.6757 41.2523 31.9703 40.6629 31.2337C40.3683 30.6444 39.779 30.497 39.779 29.7604C40.8103 29.4657 41.8416 29.3184 43.1675 29.1711C43.1675 29.4657 43.6095 29.4657 43.7569 29.7604H43.6095ZM36.5377 37.7162C35.3591 37.7162 34.1804 37.5688 33.1491 37.2742C33.5911 36.5375 33.7385 35.6536 34.3278 35.0642C35.0644 35.8009 36.5377 36.6849 36.9797 37.5688H36.5377V37.7162ZM37.8637 35.3589C37.4217 35.6536 37.2744 34.9169 37.127 34.7696C37.127 34.3276 37.8637 33.7383 37.569 33.149C37.569 32.265 36.5377 31.6757 36.8324 30.6444C37.127 30.3497 37.127 29.1711 38.1583 29.4657C38.1583 30.939 38.7477 32.5596 40.221 33.149C41.1049 33.149 41.8416 33.7383 42.8729 33.8856C42.8729 34.3276 42.5782 34.4749 42.4309 34.4749C40.8103 34.9169 39.1897 34.4749 37.8637 35.2116V35.3589ZM46.5561 34.3276C46.5561 34.6223 46.2615 34.9169 46.1141 35.2116C45.3775 36.3902 44.4935 37.2742 43.1675 38.0108C42.1362 37.7162 41.2523 37.7162 40.221 37.5688C39.6316 37.4215 39.779 36.8322 39.779 36.2429C41.3996 36.2429 43.1675 35.9482 44.6408 35.3589C45.2302 34.9169 45.5248 34.0329 46.2615 33.8856C46.2615 34.1803 46.5561 34.1803 46.4088 34.3276H46.5561ZM46.4088 31.2337C46.8508 30.497 47.8821 30.2024 47.5874 29.0237C47.5874 27.9924 47.7348 26.8138 47.5874 25.7825C47.5874 24.6038 48.7661 25.4878 49.0607 25.7825C49.2081 26.8138 49.7974 28.1398 49.2081 29.0237C48.9134 29.4657 48.7661 30.055 48.6188 30.497C47.8821 30.7917 47.4401 32.1177 46.4088 31.2337ZM54.3646 37.1269C54.07 38.8948 53.186 40.5154 52.302 41.6941C50.976 41.6941 49.5027 43.6094 48.7661 41.6941C48.7661 41.6941 48.7661 41.5467 48.7661 41.2521C49.3554 41.1048 49.5027 40.0735 50.092 39.7788C50.976 38.6002 51.86 37.8635 52.8913 36.5375C52.8913 36.2429 53.186 35.9482 53.0386 35.6536C53.3333 34.9169 53.628 34.1803 53.9226 33.4436C55.3959 34.1803 53.9226 35.9482 54.3646 37.1269Z" fill="#004FA3"/>
<path d="M44.9355 56.5742C46.1142 58.4895 48.1768 59.9628 50.3867 60.8467C52.8913 61.2887 55.6906 61.7307 58.3425 60.9941C60.1105 60.9941 61.5838 60.1101 63.0571 59.5208C64.0884 58.7841 65.267 57.9001 66.4457 57.0162C66.4457 57.6055 66.151 58.1948 66.0037 58.6368C65.4143 59.9628 64.5304 60.8467 63.3517 61.5834C63.0571 62.0254 62.4678 62.1727 62.0258 62.4674C60.8471 63.204 59.2265 63.7933 57.7532 63.9407C54.9539 64.8246 51.7127 64.2353 49.0608 63.7933C46.5561 63.0567 44.1989 61.7307 42.1363 59.8154C42.1363 59.3734 41.5469 59.2261 41.3996 58.6368C41.2523 58.3421 40.9576 58.0475 40.9576 57.7528C40.9576 57.6055 40.663 57.4582 40.8103 57.1635C41.6943 56.4268 42.5783 54.5116 44.1989 54.6589L44.9355 56.1322" fill="#004FA3"/>
<path d="M38.1584 9.13418C38.7478 9.57617 39.3371 9.87083 39.6317 10.4601C39.1897 10.7548 38.4531 10.9021 38.0111 10.6074C36.9798 9.28151 35.0645 8.69219 34.0332 7.36622C35.9485 6.62957 36.5378 8.83952 38.1584 8.98685" fill="#004FA3"/>
<path d="M69.3923 60.9941C69.0976 61.7307 68.6556 62.1727 68.5083 62.6147C67.477 63.3513 66.2984 63.7933 65.1197 64.53C65.1197 64.53 64.8251 64.53 64.6777 64.3827C64.9724 62.32 67.6243 62.4674 68.6556 61.1414C68.9503 61.1414 69.0976 61.1414 69.3923 60.9941Z" fill="#004FA3"/>
<path d="M48.4715 67.9189C48.3242 68.6555 47.5875 68.9502 47.1456 69.3922C46.7036 69.3922 46.5562 69.6868 46.2616 69.5395C46.2616 69.0975 45.9669 68.2135 46.7036 68.0662C47.2929 67.6242 47.8822 67.7715 48.6188 67.9189" fill="#004FA3"/>
<path d="M9.57644 78.5265C7.95582 75.5799 6.18786 72.486 4.12524 69.6867C4.12524 69.3921 4.56723 69.3921 4.86189 69.0974C6.33519 70.5707 7.66116 72.3387 8.83979 74.1066C10.3131 75.7272 11.1971 77.6425 13.849 77.4952C15.617 77.9372 18.2689 78.9685 19.7422 77.6425C18.5635 76.1692 16.5009 76.3166 14.8803 75.7272L14.4383 75.1379C16.2063 75.4326 18.4162 75.1379 20.3315 74.6959C20.4788 74.6959 20.9208 74.2539 20.7735 74.1066C19.3002 73.0753 17.5322 73.0753 15.9116 72.486C14.733 71.8967 13.407 71.4547 12.3757 70.8654C12.3757 70.8654 12.3757 70.5707 12.3757 70.276L14.5856 69.6867C14.8803 69.5394 15.0276 69.2447 15.0276 68.9501C14.291 68.3608 13.1124 68.5081 12.2284 67.7714C10.7551 67.1821 8.98712 66.2981 8.54513 64.5302C9.72377 64.8248 10.9024 64.9722 12.081 64.5302C12.081 64.3829 12.081 64.2355 12.081 63.9409C11.0497 63.3515 9.8711 62.9096 9.28178 62.0256C8.83979 62.0256 8.83979 61.1416 8.3978 60.8469C8.54513 59.521 9.42911 58.0477 8.83979 56.5744C9.28178 55.9851 9.72377 56.869 10.1658 57.0164C10.7551 57.753 11.1971 58.637 11.4917 59.6683C11.7864 59.963 11.7864 60.5523 12.3757 60.8469C13.5543 60.6996 14.1437 59.521 14.5856 58.7843C15.3223 59.521 15.4696 60.6996 16.2063 61.4363C16.7956 61.4363 17.2376 61.5836 17.8269 61.4363C18.1216 61.2889 18.2689 59.8156 19.0055 60.6996L19.7422 61.5836C20.4788 61.7309 21.5101 62.1729 21.9521 61.5836C22.2468 61.1416 22.0995 60.5523 22.5415 60.2576C23.4254 60.6996 22.6888 62.4676 24.4567 62.1729C24.4567 62.9096 25.7827 63.2042 25.3407 64.0882C24.6041 64.2355 24.6041 65.1195 23.8674 64.8248C23.1308 64.2355 22.3941 63.7935 21.3628 63.6462C20.6262 63.6462 20.4788 64.5302 20.4788 65.1195C22.9834 66.4455 24.7514 68.9501 26.6667 71.16C26.6667 73.2226 28.7293 74.4013 29.4659 76.0219C30.0553 76.7585 30.4973 77.3479 30.9392 78.2318H9.57644" fill="#004FA3"/>
<path d="M101.805 10.1655H94.7329V32.707H101.805V10.1655Z" fill="white"/>
<path d="M106.667 10.1655H114.917L123.61 24.8985H123.757V10.1655H129.945V32.707H121.694L112.854 18.2687V32.707H106.667V10.1655Z" fill="white"/>
<path d="M141.731 10.1655H134.659V32.707H141.731V10.1655Z" fill="white"/>
<path d="M150.276 10.1655H158.085L149.54 20.7733L158.085 32.707H149.834L142.173 20.9206L150.276 10.1655Z" fill="white"/>
<path d="M85.8931 10.1655H73.3701V32.707H80.1473V24.3092H84.2725C88.8397 24.3092 92.081 21.3626 92.2283 16.9427C92.2283 11.3442 87.5138 10.1655 86.0405 10.1655H85.8931ZM81.9152 19.742H80V14.8801H82.5046C82.6519 14.8801 82.9465 14.8801 83.0939 14.8801C84.4198 14.8801 85.3038 15.3221 85.3038 17.2374C85.3038 19.0053 83.8305 19.742 81.9152 19.742Z" fill="white"/>
<path d="M0 78.5267H6.4825C5.59853 77.0534 4.86188 75.4328 3.83057 73.9595C3.24125 73.5175 1.62063 71.7495 0.883978 71.7495H0V78.5267Z" fill="#004FA3"/>
</g>
</g>
<defs>
<clipPath id="clip0_134_173">
<rect width="160" height="79" fill="white"/>
</clipPath>
</defs>
</svg>
