<?xml version="1.0" encoding="utf-8"?>
<!-- Generator: Adobe Illustrator 26.5.1, SVG Export Plug-In . SVG Version: 6.00 Build 0)  -->
<svg version="1.1" id="Layer_1" xmlns="http://www.w3.org/2000/svg" xmlns:xlink="http://www.w3.org/1999/xlink" x="0px" y="0px"
	 viewBox="0 0 613.3 360.2" style="enable-background:new 0 0 613.3 360.2;" xml:space="preserve">
<style type="text/css">
	.st0{fill:#BF9E54;}
</style>
<g>
	<g>
		<g>
			<path class="st0" d="M360.8,289.8l-46.1-29l-1.8-1.1l-1-0.6l-8.8-5.6L276.9,237l6.8-10.8c0.9-1.4,0.5-3.2-0.9-4l-13.3-8.3
				c-0.9-0.6-2-0.6-2.9-0.1c0.1,0.1,0.1,0.2,0.1,0.3c0.1,0.2,0.2,0.3,0.3,0.6c0.2,0.2,0.3,0.5,0.5,0.7c0.2,0.2,0.4,0.5,0.6,0.8
				c0.1,0.1,0.2,0.3,0.3,0.4c0.1,0.1,0.2,0.3,0.4,0.4c0.2,0.3,0.5,0.6,0.8,0.9c0.3,0.3,0.6,0.6,0.9,0.9c0.3,0.3,0.6,0.6,1,0.8
				c0.3,0.3,0.6,0.5,0.9,0.7c0.3,0.2,0.6,0.5,0.9,0.7c0.3,0.2,0.6,0.4,0.9,0.6c0.3,0.2,0.5,0.3,0.7,0.5c0.2,0.1,0.4,0.2,0.6,0.3
				c0.2,0.1,0.4,0.2,0.5,0.2c-0.1,0-0.2-0.1-0.5-0.2c-0.2-0.1-0.4-0.1-0.6-0.2c-0.2-0.1-0.5-0.2-0.8-0.3c-0.3-0.1-0.6-0.3-1-0.4
				c-0.3-0.2-0.7-0.3-1.1-0.5c-0.4-0.2-0.7-0.4-1.1-0.6c-0.4-0.2-0.7-0.4-1.1-0.7c-0.2-0.1-0.4-0.3-0.6-0.4c-0.1,0-0.1,0.1-0.1,0.1
				c-0.1,0.1-0.4,0.2-0.6,0.3c-0.2,0.1-0.5,0.3-0.8,0.5c-0.3,0.2-0.6,0.4-0.9,0.7c-0.3,0.3-0.7,0.6-1,0.9c-0.3,0.3-0.7,0.6-1,0.9
				c-0.3,0.3-0.7,0.7-1.1,1c-0.3,0.3-0.7,0.7-1,1.1l-1,1c-0.3,0.3-0.6,0.7-0.9,1c-0.3,0.3-0.5,0.6-0.8,0.9c-0.8,1-1.4,1.7-1.5,1.9
				c0.1-0.2,0.6-1,1.3-2.1c0.2-0.3,0.4-0.7,0.6-1c0.2-0.4,0.5-0.7,0.7-1.1c0.3-0.4,0.5-0.8,0.8-1.2c0.3-0.4,0.6-0.8,0.9-1.2
				c0.3-0.4,0.6-0.8,0.9-1.2c0.3-0.4,0.6-0.8,0.9-1.1c0.3-0.3,0.6-0.7,0.9-1c0.3-0.3,0.6-0.6,0.9-0.9c0.3-0.3,0.5-0.5,0.8-0.7
				c0.1,0,0.1-0.1,0.1-0.1c-0.1-0.1-0.1-0.1-0.2-0.1c-0.1-0.2-0.3-0.3-0.4-0.4c-0.3-0.3-0.5-0.5-0.8-0.7c-0.3-0.2-0.4-0.5-0.6-0.7
				c-0.1-0.1-0.3-0.3-0.4-0.4l-6.5,10.3c-0.4-0.1-0.8-0.1-1.2,0c-0.7,0.2-1.4,0.6-1.8,1.2l-3.5,5.7c-0.7,1-0.6,2.3,0.2,3.2l-6.9,11
				c0.2,0.1,0.4,0.1,0.6,0.2c0.3,0.1,0.6,0.1,0.9,0.3c0.3,0.1,0.6,0.2,1,0.4c0.2,0.1,0.3,0.1,0.5,0.2c0.1,0,0.2,0.1,0.2,0.1
				c0-0.1,0-0.1,0-0.2c0.1-0.3,0.2-0.7,0.3-1c0.1-0.4,0.2-0.8,0.4-1.2c0.2-0.4,0.3-0.8,0.5-1.3c0.2-0.5,0.4-0.9,0.6-1.3
				c0.2-0.5,0.4-0.9,0.7-1.4c0.2-0.5,0.5-0.9,0.7-1.3c0.2-0.4,0.5-0.9,0.7-1.3c0.2-0.4,0.5-0.8,0.7-1.1c0.2-0.4,0.5-0.7,0.7-1
				c0.6-0.9,1.1-1.6,1.3-1.9c-0.1,0.3-0.5,1.1-1,2.1c-0.2,0.3-0.3,0.7-0.5,1.1c-0.2,0.4-0.4,0.8-0.5,1.2c-0.2,0.5-0.3,0.9-0.5,1.3
				c-0.2,0.5-0.4,0.9-0.5,1.4c-0.2,0.5-0.3,0.9-0.5,1.4c-0.2,0.5-0.3,0.9-0.4,1.4c-0.1,0.4-0.2,0.9-0.3,1.3
				c-0.1,0.4-0.1,0.8-0.2,1.1c-0.1,0.3-0.1,0.7-0.1,0.9c0,0.3-0.1,0.6-0.1,0.7v0.1c0.2,0.1,0.4,0.3,0.6,0.4c0.4,0.2,0.7,0.5,1.1,0.7
				c0.3,0.3,0.7,0.5,1,0.7c0.3,0.3,0.6,0.5,0.9,0.7c0.3,0.2,0.5,0.5,0.8,0.7c0.2,0.2,0.5,0.4,0.7,0.6l0.5,0.5
				c0.1,0.1,0.2,0.2,0.3,0.3c-0.1-0.1-0.2-0.1-0.4-0.2c-0.1-0.1-0.3-0.2-0.5-0.4c-0.2-0.2-0.5-0.3-0.7-0.5c-0.3-0.2-0.6-0.3-0.9-0.5
				c-0.3-0.2-0.6-0.3-1-0.5c-0.3-0.2-0.7-0.3-1.1-0.5c-0.4-0.2-0.7-0.3-1.1-0.5c-0.4-0.1-0.8-0.3-1.1-0.4c-0.4-0.1-0.8-0.2-1.2-0.3
				c-0.2,0-0.3-0.1-0.5-0.1c-0.2-0.1-0.3-0.1-0.5-0.1c-0.3-0.1-0.7-0.1-1-0.2c-0.3-0.1-0.6-0.1-0.8-0.1c-0.2,0-0.5-0.1-0.6-0.1
				c-0.1,0-0.2,0-0.3-0.1c-0.1,1,0.4,2,1.4,2.6l13.3,8.3c1.4,0.9,3.2,0.5,4.1-0.9l7.2-11.5l21.2,13.4l9,5.6l0.7,0.4l1.9,1.2
				l51.1,32.1c1.3,0.8,3,0.4,3.9-0.9l3.6-5.7C362.5,292.3,362.1,290.6,360.8,289.8z M305.1,266.8l-1.9-1.1l-0.7-0.5l-9.1-5.6
				l-23.7-14.5c-0.3,0.5-0.6,0.9-0.9,1.4c-0.5,0.8-1,1.5-1.5,2.2c-0.5,0.7-0.9,1.4-1.4,1.9c-1.7,2.4-3,3.9-3,3.9s0.8-1.8,2.2-4.4
				c0.3-0.7,0.7-1.4,1.1-2.1c0.4-0.7,0.9-1.5,1.3-2.3c0.3-0.5,0.5-0.9,0.8-1.4l-1-0.6l0.9-1.4l0.9,0.6c0.4-0.7,0.9-1.5,1.3-2.2
				l1.6-2.5c0.5-0.8,1.1-1.6,1.6-2.4c1-1.5,2-2.9,2.9-4.1c1.8-2.4,3-3.9,3-3.9s-0.8,1.8-2.2,4.4c-0.7,1.3-1.5,2.8-2.5,4.4
				c-0.5,0.8-1,1.6-1.5,2.5c-0.5,0.8-1,1.7-1.5,2.5c-0.5,0.7-0.9,1.4-1.4,2.2l23.7,15.3l8.9,5.7l0.7,0.5l1.8,1.2l28.6,18.5
				L305.1,266.8z"/>
		</g>
		<g>
			<path class="st0" d="M361.5,248.9c-0.2,0-0.4,0.1-0.6,0.1c-0.2,0-0.5,0-0.8,0.1c-0.3,0.1-0.6,0.1-1,0.2c-0.2,0-0.3,0.1-0.5,0.1
				c-0.2,0-0.3,0.1-0.5,0.1c-0.4,0.1-0.8,0.2-1.1,0.3c-0.4,0.1-0.8,0.3-1.2,0.4c-0.4,0.2-0.8,0.3-1.1,0.5c-0.4,0.2-0.7,0.3-1.1,0.5
				c-0.3,0.2-0.7,0.4-1,0.5c-0.3,0.2-0.6,0.4-0.9,0.5c-0.3,0.2-0.5,0.3-0.7,0.5c-0.2,0.2-0.4,0.3-0.6,0.4c-0.2,0.2-0.4,0.3-0.5,0.3
				c0.1-0.1,0.2-0.2,0.4-0.4c0.1-0.1,0.3-0.3,0.5-0.5c0.2-0.2,0.4-0.4,0.6-0.6c0.2-0.2,0.5-0.5,0.8-0.7c0.3-0.2,0.6-0.5,0.9-0.7
				c0.3-0.2,0.7-0.5,1-0.7c0.4-0.2,0.7-0.5,1.1-0.7c0.2-0.1,0.4-0.2,0.6-0.4v-0.1c0-0.2,0-0.4-0.1-0.7c0-0.3-0.1-0.6-0.1-0.9
				c-0.1-0.3-0.1-0.7-0.2-1.1c-0.1-0.4-0.2-0.8-0.3-1.3c-0.1-0.5-0.3-0.9-0.4-1.4c-0.2-0.5-0.3-0.9-0.5-1.4
				c-0.1-0.5-0.3-0.9-0.5-1.4c-0.2-0.5-0.3-0.9-0.5-1.3c-0.2-0.4-0.3-0.9-0.5-1.2c-0.2-0.4-0.4-0.7-0.5-1.1c-0.5-1-0.9-1.8-1-2.1
				c0.2,0.3,0.7,1,1.3,1.9c0.2,0.3,0.4,0.6,0.7,1c0.2,0.3,0.5,0.7,0.7,1.1c0.2,0.4,0.5,0.9,0.7,1.3c0.2,0.4,0.5,0.9,0.7,1.3
				c0.2,0.5,0.5,0.9,0.7,1.4c0.2,0.5,0.4,0.9,0.6,1.3c0.2,0.5,0.3,0.9,0.5,1.3c0.2,0.4,0.3,0.8,0.4,1.2c0.1,0.3,0.2,0.7,0.3,1
				c0,0.1,0,0.1,0,0.2c0.1-0.1,0.2-0.1,0.2-0.1c0.2-0.1,0.4-0.1,0.5-0.2c0.4-0.1,0.7-0.3,1-0.4c0.3-0.1,0.6-0.2,0.9-0.3
				c0.1,0,0.4-0.1,0.6-0.2l-6.9-11c0.7-0.9,0.8-2.2,0.2-3.2l-3.6-5.7c-0.4-0.6-1-1.1-1.8-1.2c-0.4-0.1-0.8-0.1-1.2,0l-6.5-10.3
				c-0.1,0.1-0.3,0.3-0.4,0.4c-0.2,0.2-0.3,0.5-0.6,0.7c-0.2,0.2-0.5,0.5-0.8,0.7l-0.4,0.4c-0.1,0-0.1,0.1-0.2,0.1
				c0,0.1,0.1,0.1,0.1,0.1c0.3,0.2,0.5,0.5,0.8,0.7c0.3,0.3,0.6,0.6,0.9,0.9c0.3,0.3,0.6,0.7,0.9,1c0.3,0.3,0.6,0.7,0.9,1.1
				c0.3,0.4,0.6,0.8,0.9,1.2c0.3,0.4,0.6,0.8,0.9,1.2c0.3,0.4,0.6,0.8,0.8,1.2c0.3,0.4,0.5,0.8,0.7,1.1c0.2,0.3,0.4,0.7,0.6,1
				c0.7,1.1,1.1,1.9,1.3,2.1c-0.1-0.2-0.7-0.9-1.5-1.9c-0.2-0.3-0.5-0.6-0.8-0.9c-0.3-0.3-0.6-0.7-0.9-1l-1-1
				c-0.3-0.4-0.7-0.7-1-1.1c-0.4-0.3-0.7-0.7-1.1-1c-0.3-0.3-0.7-0.7-1-0.9c-0.3-0.3-0.7-0.6-1-0.9c-0.3-0.3-0.6-0.5-0.9-0.7
				c-0.3-0.2-0.5-0.4-0.8-0.5c-0.2-0.1-0.5-0.3-0.6-0.3c-0.1,0-0.1,0-0.1-0.1c-0.2,0.1-0.4,0.3-0.6,0.4c-0.3,0.3-0.7,0.5-1.1,0.7
				c-0.4,0.2-0.7,0.5-1.1,0.6c-0.4,0.2-0.7,0.3-1,0.5c-0.3,0.2-0.7,0.3-1,0.4c-0.3,0.1-0.6,0.2-0.8,0.3c-0.2,0.1-0.5,0.2-0.6,0.2
				c-0.3,0.1-0.4,0.2-0.5,0.2c0.1,0,0.2-0.1,0.5-0.2c0.2-0.1,0.3-0.2,0.6-0.3c0.2-0.1,0.5-0.3,0.7-0.5c0.3-0.2,0.6-0.3,0.9-0.6
				c0.3-0.2,0.6-0.4,0.9-0.7c0.3-0.2,0.6-0.5,0.9-0.7c0.3-0.3,0.6-0.5,1-0.8c0.3-0.3,0.6-0.6,0.9-0.9c0.3-0.3,0.6-0.6,0.8-0.9
				c0.1-0.1,0.3-0.3,0.4-0.4c0.1-0.2,0.2-0.3,0.3-0.4c0.2-0.3,0.4-0.6,0.6-0.8c0.2-0.2,0.3-0.5,0.5-0.7c0.1-0.2,0.2-0.4,0.3-0.6
				c0-0.1,0.1-0.2,0.1-0.3c-0.9-0.5-2-0.5-2.9,0.1l-13.3,8.3c-1.4,0.9-1.8,2.7-0.9,4l6.8,10.8l-26.2,16.5l-8.9,5.6l8.9,5.7l8.8-5.7
				l23.7-15.3c-0.5-0.7-0.9-1.4-1.4-2.2c-0.5-0.9-1-1.7-1.5-2.5s-1-1.7-1.5-2.5c-0.9-1.6-1.8-3.1-2.5-4.4c-1.4-2.6-2.2-4.4-2.2-4.4
				s1.3,1.5,3,3.9c0.9,1.2,1.9,2.6,2.9,4.1c0.5,0.8,1.1,1.6,1.6,2.4c0.5,0.8,1.1,1.7,1.6,2.5c0.5,0.7,0.9,1.5,1.3,2.2l0.9-0.6
				l0.9,1.4l-1,0.6c0.3,0.5,0.6,0.9,0.8,1.4c0.5,0.8,0.9,1.6,1.3,2.3c0.4,0.7,0.8,1.4,1.1,2.1c1.4,2.6,2.2,4.4,2.2,4.4
				s-1.3-1.5-3-3.9c-0.5-0.6-0.9-1.3-1.4-1.9c-0.5-0.7-1-1.4-1.5-2.2c-0.3-0.5-0.6-0.9-0.9-1.4L313,259.6l-9.1,5.6l1.8,1.2l9-5.7
				l21.2-13.3l7.2,11.5c0.9,1.4,2.7,1.8,4.1,0.9l13.3-8.3c0.9-0.6,1.4-1.6,1.4-2.6C361.7,248.9,361.6,248.9,361.5,248.9z
				 M301.3,266.8l-29.3,18l28.6-18.5l1.8-1.2l-9.1-5.6l-1.7,1.1l-46.1,29c-1.3,0.8-1.7,2.5-0.9,3.8l3.6,5.7c0.8,1.3,2.5,1.7,3.8,0.9
				l51.1-32.1l1.9-1.2l-1.9-1.1L301.3,266.8z"/>
		</g>
	</g>
	<g>
		<g>
			<g>
				<g>
					<g>
						<path class="st0" d="M122.9,265.5c8.3,1.3,16.7,0.5,25-2.5c3.4-1.2,6.8-2.5,10-3.7c15.3-5.7,28.4-10.6,38.7-8.9
							c4.4,0.7,8.1,2.5,11.2,5.6c0.4,0.4,0.7,0.7,1.1,1.1c0.1,0.1,0.2,0.1,0.3,0.1c0.1,0,0.2,0,0.3-0.1l0.2-0.2
							c0.2-0.1,0.2-0.4,0-0.5c-0.1-0.1-0.2-0.3-0.3-0.5c-0.2-0.3-0.3-0.5-0.5-0.6c-3.8-4-8-6.2-13.3-7l0,0
							c-11.7-1.8-26.5,3.5-43.8,9.6l-4.3,1.5c-9.2,3.3-18.4,4.2-27.5,2.8c-1.7-0.3-3.4-0.6-5.1-1.1c-7.7-2-12.3-5.3-12.5-5.4
							c-0.2-0.1-0.4-0.1-0.5,0.1l-0.1,0.2c-0.1,0.1-0.1,0.2-0.1,0.3c0,0.1,0.1,0.2,0.1,0.3c0.1,0,4.9,4.1,12.9,6.8
							C117.3,264.3,120.1,265,122.9,265.5z"/>
					</g>
				</g>
			</g>
			<g>
				<g>
					<g>
						<path class="st0" d="M124.8,257.1c0,0,0.3,0.1,0.9,0.2c3.2,0.5,13.4,0.8,37.3-7.8c14.4-5.1,27-7,36.5-5.5
							c2.9,0.5,5.5,1.2,7.8,2.3c5.8,2.7,9.7,6.8,11.3,11.8c1.8,6.1,0,10.9-5.1,13.2c-2.7,1.2-6.2,1.6-9.7,1
							c-6.7-1.1-12.8-5.2-16.5-11.2c-0.1-0.2-0.3-0.2-0.5-0.1l-0.2,0.1c-0.1,0-0.2,0.1-0.2,0.2c0,0.1,0,0.2,0,0.3
							c3.6,7.5,9.9,12.2,17.8,13.5l0,0c3.8,0.6,7.7,0.3,11.3-0.7c2.7-0.8,5.4-3.3,7-6.4c1.7-3.4,1.9-7.1,0.6-10.6
							c-2.5-6.8-6.7-11.4-13.4-14.4c-2.9-1.3-6.8-2-10-2.5c-11-1.8-24.4,0.5-37.6,6.2c-25,11-35.9,9.7-37.1,9.5l-0.1,0
							c-0.2,0-0.4,0.1-0.4,0.3l-0.1,0.2C124.5,256.8,124.6,257,124.8,257.1z"/>
					</g>
				</g>
			</g>
			<g>
				<g>
					<g>
						<path class="st0" d="M170.4,262.5c8.2-3.3,16.7-6.5,21-5.4c0.2,0,0.4-0.1,0.4-0.2l0.1-0.2c0.1-0.2,0-0.4-0.2-0.5
							c-0.2-0.1-0.4-0.1-0.6-0.2c-0.5-0.1-0.9-0.2-1.3-0.3c-5-0.8-12.9,0.8-20.7,4.1c-5.1,2.2-9,3.8-12.5,4.9
							c-6.7,2-11.4,2.6-13.1,2.7c-0.1,0-0.1,0-0.1,0c-0.2,0-0.3,0.2-0.3,0.4l0,0.2c0,0.2,0.2,0.3,0.3,0.4c0,0,0,0,0.1,0
							c1.6,0.1,10.4,0.3,25.4-5.2L170.4,262.5z"/>
					</g>
				</g>
			</g>
		</g>
		<g>
			<g>
				<g>
					<g>
						<path class="st0" d="M483.5,265.5c-8.3,1.3-16.7,0.5-25-2.5c-3.4-1.2-6.8-2.5-10-3.7c-15.3-5.7-28.4-10.6-38.7-8.9
							c-4.4,0.7-8.1,2.5-11.2,5.6c-0.4,0.4-0.7,0.7-1.1,1.1c-0.1,0.1-0.2,0.1-0.3,0.1c-0.1,0-0.2,0-0.3-0.1l-0.2-0.2
							c-0.2-0.1-0.2-0.4,0-0.5c0.1-0.1,0.2-0.3,0.3-0.5c0.2-0.3,0.3-0.5,0.5-0.6c3.8-4,8-6.2,13.3-7l0,0c11.7-1.8,26.6,3.5,43.8,9.6
							l4.3,1.5c9.2,3.3,18.4,4.2,27.5,2.8c1.7-0.3,3.4-0.6,5.1-1.1c7.7-2,12.3-5.3,12.5-5.4c0.2-0.1,0.4-0.1,0.5,0.1l0.1,0.2
							c0.1,0.1,0.1,0.2,0.1,0.3c0,0.1-0.1,0.2-0.1,0.3c-0.1,0-4.9,4.1-12.9,6.8C489,264.3,486.2,265,483.5,265.5z"/>
					</g>
				</g>
			</g>
			<g>
				<g>
					<g>
						<path class="st0" d="M481.6,257.1c0,0-0.3,0.1-0.9,0.2c-3.2,0.5-13.4,0.8-37.3-7.8c-14.4-5.1-27-7-36.5-5.5
							c-2.9,0.5-5.5,1.2-7.8,2.3c-5.8,2.7-9.7,6.8-11.3,11.8c-1.8,6.1,0,10.9,5.1,13.2c2.7,1.2,6.2,1.6,9.7,1
							c6.7-1.1,12.8-5.2,16.5-11.2c0.1-0.2,0.3-0.2,0.5-0.1l0.2,0.1c0.1,0,0.2,0.1,0.2,0.2c0,0.1,0,0.2,0,0.3
							c-3.6,7.5-9.9,12.2-17.8,13.5l0,0c-3.8,0.6-7.7,0.3-11.3-0.7c-2.7-0.8-5.4-3.3-7-6.4c-1.7-3.4-1.9-7.1-0.6-10.6
							c2.5-6.8,6.7-11.4,13.4-14.4c2.9-1.3,6.8-2,10-2.5c11-1.8,24.4,0.5,37.6,6.2c25,11,35.9,9.7,37.1,9.5l0.1,0
							c0.2,0,0.4,0.1,0.4,0.3l0.1,0.2C481.9,256.8,481.8,257,481.6,257.1z"/>
					</g>
				</g>
			</g>
			<g>
				<g>
					<g>
						<path class="st0" d="M435.9,262.5c-8.2-3.3-16.7-6.5-21-5.4c-0.2,0-0.4-0.1-0.4-0.2l-0.1-0.2c-0.1-0.2,0-0.4,0.2-0.5
							c0.2-0.1,0.4-0.1,0.6-0.2c0.5-0.1,0.9-0.2,1.3-0.3c5-0.8,12.9,0.8,20.7,4.1c5.1,2.2,9,3.8,12.5,4.9c6.7,2,11.4,2.6,13.1,2.7
							c0.1,0,0.1,0,0.1,0c0.2,0,0.3,0.2,0.3,0.4l0,0.2c0,0.2-0.2,0.3-0.3,0.4c0,0,0,0,0,0c-1.6,0.1-10.4,0.3-25.4-5.2L435.9,262.5z"
							/>
					</g>
				</g>
			</g>
		</g>
	</g>
	<path class="st0" d="M156.9,84.7c-1.4,1-2.7,2.6-3.7,5l0.8,2.8c0.7-2.9,2-4.8,3.4-6.1L156.9,84.7z"/>
	<g>
		<path class="st0" d="M153,198.4c-4.5-6.7-8.6-13.2-15.6-13.7c5.2,2,8.6,7.4,12.4,13c1.8,2.6,4.1,4.2,7,4.9l-15.8,7
			c0.5,0.5,1,1,1.6,1.4l17.3-7.7C157.1,202.6,154.8,201,153,198.4z"/>
		<path class="st0" d="M137.9,178.4c2.3-5.1,3.2-9.8,0.2-17.3c-2.9-7.2-7.1-11.1-13.3-11.8c4.4,1.5,7.5,5.3,10.1,11
			c3.3,7.4,3,15-1.8,20.9C133.1,181.3,136.2,181.4,137.9,178.4z"/>
		<path class="st0" d="M116.1,180.5l-8.6-19.5c1.2-0.8,2.6-1.2,4.3-1.2c-2.3-0.9-3.7-1-7.5,0.4l9.7,22.2
			C114.9,182,115.5,181.2,116.1,180.5z"/>
		<path class="st0" d="M128.7,209.1l-6.5-14.8c0.8,0,1.8,0.2,2.2,0.3c-1.6-1-3.3-1.5-5.5-1.1l6.6,15c1.2,2.6,3,4,6.4,5l-17.4,7.7
			c-0.2,0.8-0.6,1.6-1,2.6l21.6-9.5C131.7,213.2,129.9,211.8,128.7,209.1z"/>
	</g>
	<g>
		<path class="st0" d="M198.3,158.7c-3-10-6.8-22-17.9-26.5c-1.6-0.7-3.2-1.1-4.8-1.3c0.5,0.2,1.1,0.4,1.6,0.6
			c11.1,4.6,14.9,16.5,17.9,26.5c2.5,10,5.1,22.3-2.1,31.7c-3.3,4.3-7.8,6.8-13.4,8.3c-3.8,1-7.3,1.4-10.8,0.9
			c4.5,1.4,9.1,1.1,14-0.2c5.6-1.5,10.1-4,13.4-8.3C203.4,181.1,200.8,168.8,198.3,158.7z"/>
		<path class="st0" d="M175.1,188.6c-4.8-2.8-6.7-11.1-9.4-21c-3.3-12.3-6.6-24.8,0.1-26.6c0.2-0.1,0.4-0.1,0.7-0.1
			c-1.2-0.7-2.5-1.1-3.9-0.6c-6.1,2.3-3.5,14.3-0.1,26.6C165.7,178.9,168.7,189.5,175.1,188.6z"/>
	</g>
	<g>
		<path class="st0" d="M226.4,182.5l-2.4-16.7c-1.4-2.3-2.9-4.6-4.3-6.9l3.1,21.7c0.4,3.1,2.1,5,5.1,6.6l-15.7,2.3
			c-0.5,0.8-1.1,1.7-2.1,2.7l21.4-3.1C228.5,187.6,226.8,185.6,226.4,182.5z"/>
		<polygon class="st0" points="228.1,136.1 234.2,146.9 233.3,140.9 221.8,122.8 219.7,123.1 		"/>
		<path class="st0" d="M258.4,174.1l-7-48.1c-0.4-2.6,0-4.8,3-7.8l-5.7,0.8c-1,1.8-1.1,3.4-0.9,5.1l7,48.1c0.5,3.7,1.3,7.6,3.4,10.7
			L244,185c0.5,0.7,0.9,1.5,1.4,2.2l16.4-2.4C259.7,181.7,258.9,177.7,258.4,174.1z"/>
	</g>
	<g>
		<path class="st0" d="M178.3,83.5c0.5,0.4,1.1,0.8,1.6,1.3l-3.1-10.4l-1.1,0.3L178.3,83.5z"/>
		<path class="st0" d="M179.4,111.9l-8.9-29.7c1.7-0.3,4-0.4,6.7,0.9c-3.3-2.1-6.2-2-8.2-1.7l8.9,29.7c0.4,1.2,1.1,2.6,3.3,3.6
			l-10.9,3.4c-0.1,0.5-0.4,1-0.7,1.5l13.1-4C180.4,114.5,179.7,113.1,179.4,111.9z"/>
	</g>
	<g>
		<path class="st0" d="M193.6,70.4c-0.5,1.2-0.6,2.3-0.3,3.5l1.9,8.2l1.2-0.3l-1.6-7.1c-0.4-1.7-0.1-3.2,1.1-4.8L193.6,70.4z"/>
		<path class="st0" d="M218.2,102.5l-7.1-31.4c-0.4-1.7,0-3.3,1-4.8l-2.2,0.5c-0.5,1.1-0.6,2.3-0.3,3.5l7.1,31.4
			c0.3,1.4,1,2.7,3,3.9l-10.8,2.4c-0.2,0.4-0.4,0.9-0.7,1.3l13.1-2.9C219.3,105.2,218.5,103.9,218.2,102.5z"/>
		<path class="st0" d="M201.8,106.2l-3.5-15.5l3-0.7l-0.2-1.1l-4.2,0.9l3.5,15.5c0.3,1.2,1.1,2.7,3,3.8l-10.9,2.4
			c-0.2,0.4-0.4,0.9-0.7,1.3l13.1-2.9C202.9,108.9,202.1,107.4,201.8,106.2z"/>
	</g>
	<g>
		<path class="st0" d="M233.3,95.6l-1.8-11.7c3.3-0.4,5.6-0.4,7.3,0.3c-1.8-1.4-4.5-1.7-8.8-1.1l2,13
			C232.5,96,232.9,95.8,233.3,95.6z"/>
		<path class="st0" d="M230.1,75.1l-1.1-6.9c2.4-0.5,5.9-0.9,9.4,0.7c-4-2.6-8.2-2.1-10.9-1.6l1.3,8.3
			C229.3,75.6,229.7,75.4,230.1,75.1z"/>
		<path class="st0" d="M238.1,76.5l1.2,7.9c0.6,0.3,1.1,0.6,1.5,1.1l-1.6-10.3C238.9,75.7,238.5,76.1,238.1,76.5z"/>
		<path class="st0" d="M240.3,70c0.5,0.4,1,0.8,1.6,1.3l-1.5-9.5l-1.3,0.2L240.3,70z"/>
		<path class="st0" d="M244.7,89.9c-0.3,0.9-0.6,1.7-1,2.5l1.5,9.3l-20.7,3.2c-0.2,0.4-0.5,0.8-0.9,1.2l23.1-3.6L244.7,89.9z"/>
	</g>
	<g>
		<path class="st0" d="M329.1,82.2l-3.3,0.1l0.5,20.2c1.1,1,2.3,2.1,3.4,3.3L329.1,82.2z"/>
		<path class="st0" d="M298.7,173.4l-1-40.2c9.7-0.1,16.2,1,20.3,3.4c-3.3-4.2-10.7-6.4-23.7-6.2l1,40.2c0.1,2.5,1.3,6.9,5.9,10.7
			l-29.6,0.8c-0.7,1-1.6,2-2.7,3l35.7-0.9C300,180.4,298.8,175.9,298.7,173.4z"/>
		<path class="st0" d="M293.3,92.1l0.5,21.3c1.2,0,2.3-0.1,3.3-0.2l-0.5-18.3c11-0.7,19.4,0.6,27.2,6.4
			C315.1,93.1,305.9,91.3,293.3,92.1z"/>
		<path class="st0" d="M317.9,117.4l0.5,19.4c1.5,0.9,2.6,2,3.4,3.2l-0.7-25.5C320.4,115.5,319.3,116.5,317.9,117.4z"/>
	</g>
	<path class="st0" d="M404.7,121.4c-1.3,1.4-2.1,3.1-2.4,5l-6.9,52.1c-0.3,2,0,4.7,2.6,7.6l-19.8-2.6c-0.6,0.6-1.3,1.2-2.2,1.8
		l23.8,3.2c-2.6-2.9-2.9-5.6-2.6-7.6l6.9-52.1c0.4-2.7,1.9-5.1,4.5-6.8L404.7,121.4z"/>
	<path class="st0" d="M494.1,143.3c-1.5,1.2-2.6,2.7-3.2,4.5l-16,50c-0.6,1.9-0.9,4.7,1.2,8l-18.8-6c-0.7,0.5-1.5,1-2.5,1.4
		l22.9,7.3c-2.1-3.3-1.9-6-1.2-8l16-50c0.8-2.6,2.7-4.6,5.6-5.9L494.1,143.3z"/>
	<g>
		<path class="st0" d="M501.9,204.6c0.6,0.3,1.4,0.3,2,0.5l8.4-18.7c6,2.9,9.6,5.4,11.4,8.4c-1.1-4.1-4.8-7.2-12.4-10.8L501.9,204.6
			z"/>
		<path class="st0" d="M523.7,194.9c0.5,0.8,0.8,1.6,1,2.5l7-15.5c-0.8,0.3-1.6,0.5-2.5,0.7L523.7,194.9z"/>
		<path class="st0" d="M516.9,223.5l-34-15.3c-0.7,0.4-1.6,0.6-2.6,0.8l37.7,16.9l8.5-18.9c-1,0.8-2.1,1.5-3.1,2.1L516.9,223.5z"/>
		<path class="st0" d="M521.7,160.7l-6,13.4c0.6,0.3,1.3,0.4,1.9,0.6l5.1-11.6c4.6,1.9,11.2,5.1,14.8,12.3
			C534.3,166.5,526.7,162.8,521.7,160.7z"/>
		<path class="st0" d="M543.8,164.1l-5.5,12.3c0.4,0.8,0.7,1.7,0.9,2.7l6.4-14.2L543.8,164.1z"/>
	</g>
	<g>
		<path class="st0" d="M567.6,220c0.3,1.5,0.5,3.1,0.6,4.6c0.1,3.4-0.5,6.8-3,10.4c-6.9,9.9-15.9,10.5-27.1,2.7
			c-5.4-3.8-8.8-9.6-13.9-11.4l-1.7,2.5c6.6,0.6,10.2,7.6,16.4,11.9c11.2,7.9,20.1,7.2,27.1-2.7c2.5-3.6,3.2-7,3-10.4
			C568.7,225.1,568.3,222.5,567.6,220z"/>
		<path class="st0" d="M535.8,209.7c-1.1,5.4-1,9.6,0.1,12.8c-0.6-4.1,0.1-9.3,2.3-16.2L535.8,209.7z"/>
		<path class="st0" d="M589.5,193l-10.8,15.5c-0.1,1.5-0.3,3.1-0.5,4.8l13.7-19.6C590.9,193.5,590.2,193.3,589.5,193z"/>
		<path class="st0" d="M571.3,189.3c-3.6-2-7-0.9-9,1.5c-2,2.4-2.4,5.5-1.8,9c-1.4-4.8-1.4-8.9,1.1-12c1.9-2.4,5.4-3.5,9-1.5
			c0,0,3.1,1.5,5.3,6.5C575.8,192.8,573.9,190.9,571.3,189.3z"/>
	</g>
	<g>
		<path class="st0" d="M449.7,191.6c0.3-8.1,0.8-15.7-4.5-20.3c3,4.6,2.6,11.1,2.4,17.8c-0.1,3.2,0.8,5.8,2.8,8.1l-16.8-3.7
			c0.1,0.7,0.3,1.4,0.5,2.1l18.5,4C450.5,197.5,449.6,194.8,449.7,191.6z"/>
		<path class="st0" d="M449.3,166.6c3.7-1.4,8.3-6.1,10.3-13.9c1.9-7.5,0.8-13.1-3.8-17.3c2.7,3.9,3,8.7,1.7,14.9
			c-1.7,7.9-6.4,13.9-13.7,15.9C443.7,166.1,445.5,167.7,449.3,166.6z"/>
		<path class="st0" d="M430.4,155.5l4.5-20.8c1.4,0,2.8,0.5,4.1,1.6c-1.4-2.1-2.4-2.9-6.3-4l-5.2,23.7
			C428.5,156,429.5,155.8,430.4,155.5z"/>
		<path class="st0" d="M423.7,186.1l3.4-15.8c0.6,0.5,1.3,1.2,1.6,1.5c-0.7-1.7-1.8-3.1-3.8-4.1l-3.4,16c-0.6,2.8,0,5,2.2,7.9
			l-18.6-4c-0.6,0.5-1.4,1-2.4,1.5l23.1,5C423.8,191.1,423.1,188.9,423.7,186.1z"/>
	</g>
	<g>
		<polygon class="st0" points="340.1,144.1 339,135.9 335.5,149.9 338.6,150.1 		"/>
		<path class="st0" d="M368.6,177.2l-9.3-52.9c-0.4-2.3,0.2-5.8,1.7-7.3l-3.8-0.2c-0.6,1.7-0.8,3.8-0.6,5.4l9.3,52.9
			c0.6,2.9,1.8,5.8,4.5,7.5l-20.3-1.1c-0.6,0.7-1.3,1.4-2.3,1.8l25.3,1.4C370.5,183.1,369.2,180.1,368.6,177.2z"/>
		<path class="st0" d="M335.1,163.7l7.2,0.3l-0.3-2l-9.5-0.4l-3.3,12.2c-0.7,2.4,0.1,4.9,2.2,6.8l-14.6-0.8
			c-0.6,0.7-1.3,1.4-2.1,1.9l19.3,1c-2.1-1.9-2.9-4.4-2.2-6.8L335.1,163.7z"/>
	</g>
	<path class="st0" d="M110.6,228.2c-5.8-1.2-8.5-4.3-9.9-7l-37.5-70c-2-3.7-2.2-7.9-0.4-12.3l-5.7,3.1c-0.3,2.8,0.2,5.5,1.5,7.9
		l37.5,70c1.4,2.7,4.2,5.8,9.9,7l-26.2,14c-0.2,1.4-0.5,2.9-1.2,4.4L110.6,228.2z"/>
	<path class="st0" d="M69.4,243c2.3-5.3,1-10-0.2-12.2l-37.5-70c-2-3.7-5.4-6.2-10.2-7.1l32-17.1c-1.7,4.4-1.6,8.6,0.4,12.3l37.5,70
		c1.5,2.7,4.2,5.8,9.9,7L69.4,243z"/>
	<path class="st0" d="M127.3,183.2c9.6-1.9,14.3,5.6,19.6,13.5c1.8,2.6,4.1,4.2,7,4.9l-17.3,7.7c-6.5-4.7-9.5-19.4-20.9-17.5l7,15.8
		c1.2,2.6,3,4,6.4,5l-21.6,9.5c1.7-3.4,1.7-5.2,0.4-8l-21-47.7c-1.1-2.5-3.5-4.7-6.4-5.6l11.9-5.2c23.8-12,33.5-10.3,39.7,3.9
		C135.9,168,134.9,177.1,127.3,183.2z M117.9,167.5c-2.1-4.8-7-12.6-16.5-8.2l11.7,26.6C121.1,180.7,120.6,173.7,117.9,167.5z"/>
	<path class="st0" d="M190.2,188.8c-3.3,4.3-7.8,6.8-13.4,8.3c-5.6,1.5-10.7,1.7-15.8-0.4c-10.9-4.5-14.9-16.4-17.8-26.3
		c-2.5-10.1-5.2-22.4,2-31.9c3.3-4.3,7.9-6.7,13.4-8.2c5.6-1.5,10.7-1.8,15.8,0.3c11.1,4.6,14.9,16.5,17.9,26.5
		C194.7,167.1,197.3,179.4,190.2,188.8z M174.7,189.6c6.7-1.8,4.4-15.8,1.1-28.1c-3.4-12.5-8.4-25.5-15.1-23.6
		c-6.7,1.8-4.4,15.7-1.1,28C163,178.4,168,191.4,174.7,189.6z"/>
	<path class="st0" d="M247.3,114.4c-3,3-3.4,5.2-3,7.8l7,48.1c0.5,3.7,1.3,7.6,3.4,10.7l-16.4,2.4c-8-12.6-15.9-25.2-23.8-37.9
		l4.8,33.3c0.4,3.1,2.1,5,5.1,6.6l-21.4,3.1c3-2.9,3.2-5.2,2.9-7.7l-7.5-52c-0.4-3.1-2.4-5.4-5-6.7l21.4-3.1l15.2,23.7l6,10.8
		l-4.3-29.6c-0.4-3.1-2.2-5-5-6.6L247.3,114.4z"/>
	<path class="st0" d="M323,99.6C313.5,89.4,303.8,87.1,290,88l0.7,28.2c14-0.4,20.8-4.2,23.7-7.9l0.7,25.5c-3-4.5-10.5-7-24.1-6.8
		l1,40.2c0.1,2.5,1.3,6.9,5.9,10.7l-35.7,0.9c4.4-4,5.2-7.9,5.2-11l-2-79.3c-0.1-4.2-1.7-7.9-5.7-10.9l62.7-1.6L323,99.6z"/>
	<path class="st0" d="M342.7,179c3.1-1.4,3.8-4.4,3.4-7l-1.9-11.9l-14.3-0.8l-3.3,12.2c-0.7,2.4,0.1,4.9,2.2,6.8l-19.3-1
		c2.4-1.4,4.1-4.6,4.7-6.5l15.2-52.1c0.6-2.3,0.7-5.4-0.9-7.4l27.4,1.5c-1.5,1.5-2.1,5-1.7,7.3l9.3,52.9c0.6,2.9,1.8,5.8,4.5,7.5
		L342.7,179z M343.2,152.4l-3.9-29.6l-7.3,29L343.2,152.4z"/>
	<path class="st0" d="M371.9,180.7c3.3-2,4.4-5,4.6-6.6l6.9-52.1c0.4-2.7-0.5-5.4-2.7-7.7l23.8,3.2c-2.6,1.7-4.2,4-4.5,6.8
		l-6.9,52.1c-0.3,2,0,4.7,2.6,7.6L371.9,180.7z"/>
	<path class="st0" d="M451.8,196c3.6-1.4,5.2-4.1,5.7-5.7l16-50c0.8-2.6,0.5-5.4-1.3-8.1l22.9,7.3c-2.9,1.2-4.8,3.2-5.6,5.9l-16,50
		c-0.6,1.9-0.9,4.7,1.2,8L451.8,196z"/>
	<path class="st0" d="M516,220.9L478.3,204c3.5-0.5,5-2.4,6.2-5.1L506,151c1.1-2.5,1.2-5.3-0.3-8.1l37.9,17l-6.4,14.2
		c-2.8-10.1-11-14.2-16.3-16.3l-7.6,17c7.1,3,11.9,3.7,16.5,2l-7,15.5c-1-4.1-4.7-7.3-12.4-11l-10.8,24.1c9,3.7,17.5,2.4,25-3.5
		L516,220.9z"/>
	<path class="st0" d="M537,235.7c-6.2-4.3-9.8-11.4-16.4-11.9l15.7-22.4c-4.4,14.2-2.7,21.6,3.6,25.5c5.8,3.7,9.7,0.4,11.3-4.2
		c2.2-5.7-1.4-11.7-4-19.6c-2.5-7.6-3.8-12.9-2.9-17.4c1.2-6.6,6.2-13,14.3-13.7c4.6-0.4,10.1,1.3,16,5.4c5.8,4.1,7.7,9.3,15.5,11.2
		l-13.7,19.6c2-14.2-0.2-20.3-6.8-23.9c-3.6-2-7-0.9-9,1.5c-3.1,3.8-2.4,9.1,0.1,15.4c2.9,7.1,6.2,14,6.5,21.5
		c0.1,3.4-0.5,6.8-3,10.4C557.1,242.9,548.2,243.5,537,235.7z"/>
	<g>
		<path class="st0" d="M175.6,109.9c0.4,1.2,1.1,2.6,3.3,3.6l-12.8,3.8c1.2-1.9,1.1-3.6,0.7-4.8l-9.1-30.7c-2.2,1-5.4,3-6.8,8.4
			l-3.1-10.4l25.9-7.7l3.1,10.4c-4.1-3.7-7.9-3.7-10.3-3.3L175.6,109.9z"/>
		<path class="st0" d="M204.6,107.2c1.3-1.9,1.4-3.5,1.1-4.8l-3.4-15.5l-7.4,1.6l3.4,15.5c0.3,1.2,1.1,2.7,3,3.9l-13.1,2.9
			c1.2-1.9,1.3-3.5,1-4.8l-7-31.4c-0.4-1.7-1.2-2.9-3-3.9l13.1-2.9c-1.2,1.6-1.5,3.2-1.1,4.8l2.5,11.2l7.4-1.6L198.7,71
			c-0.4-1.7-1.3-2.9-3-3.9l13.1-2.9c-1,1.5-1.4,3.1-1,4.8l7,31.4c0.3,1.4,1,2.7,2.9,3.9L204.6,107.2z"/>
		<path class="st0" d="M243.5,100.2l-23.1,3.6c1.5-1.4,1.6-2.9,1.3-4.7l-5-31.8c-0.3-1.7-1.1-3.1-2.7-4.1l23.2-3.6l1.5,9.4
			c-4.5-4.3-9.7-3.7-12.9-3.1l1.8,11.3c4.3-0.8,6.8-2,8.4-4.4l1.6,10.3c-1.8-1.8-4.5-2.2-9.3-1.6l2.5,16c5.4-1,9-4.5,10.7-10
			L243.5,100.2z"/>
	</g>
	<path class="st0" d="M437.9,164.3c8.9,4.1,8.2,12.9,7.9,22.4c-0.1,3.2,0.8,5.8,2.8,8.1l-18.5-4c-2.5-7.6,3.8-21.3-6.5-26.5
		l-3.7,16.9c-0.6,2.8,0,5,2.2,7.9l-23.1-5c3.3-1.7,4.4-3.2,5-6.3l11.1-51c0.6-2.7-0.1-5.9-1.9-8.3l12.7,2.8
		c26.3,4.3,33.1,11.4,29.9,26.5C453.7,157.1,447.6,163.8,437.9,164.3z M439.5,146.1c1.1-5.1,1.8-14.4-8.5-16.3l-6.2,28.4
		C434.3,158.6,438.1,152.6,439.5,146.1z"/>
</g>
</svg>
