<svg width="67" height="28" viewBox="0 0 67 28" fill="none" xmlns="http://www.w3.org/2000/svg">
<g clip-path="url(#clip0_34_2179)">
<path d="M12.2408 3.6099C11.4556 4.55566 10.1994 5.30162 8.94311 5.19505C8.78607 3.91627 9.40111 2.55756 10.1208 1.71836C10.906 0.745956 12.28 0.0532826 13.3923 0C13.5232 1.33206 13.0128 2.63749 12.2408 3.6099ZM13.3792 5.44814C11.5603 5.34158 10.0031 6.50048 9.13939 6.50048C8.26264 6.50048 6.94096 5.50143 5.5015 5.52807C3.63021 5.55471 1.88979 6.63368 0.934512 8.35205C-1.02838 11.7888 0.424161 16.8773 2.32162 19.6746C3.25072 21.0599 4.36303 22.5785 5.82865 22.5252C7.21576 22.4719 7.76537 21.6061 9.44037 21.6061C11.1285 21.6061 11.6126 22.5252 13.0783 22.4986C14.5962 22.4719 15.5515 21.1132 16.4806 19.7279C17.5406 18.156 17.9724 16.6242 17.9986 16.5442C17.9724 16.5176 15.0673 15.3853 15.0412 11.9753C15.015 9.12464 17.3312 7.76594 17.4359 7.68601C16.1273 5.71456 14.0859 5.50143 13.3792 5.44814ZM23.8872 1.58516V22.352H27.054V15.2521H31.4378C35.4421 15.2521 38.2556 12.4548 38.2556 8.40533C38.2556 4.35585 35.4945 1.58516 31.5425 1.58516H23.8872ZM27.054 4.30257H30.705C33.4531 4.30257 35.0234 5.79448 35.0234 8.41865C35.0234 11.0428 33.4531 12.548 30.6919 12.548H27.054V4.30257ZM44.0396 22.5119C46.0287 22.5119 47.8738 21.4862 48.7113 19.8611H48.7767V22.352H51.708V12.0152C51.708 9.01808 49.3525 7.08658 45.7277 7.08658C42.3646 7.08658 39.8783 9.04472 39.7867 11.7355H42.6394C42.8749 10.4567 44.0396 9.61751 45.6361 9.61751C47.5728 9.61751 48.6589 10.5366 48.6589 12.2284V13.3739L44.707 13.6137C41.0298 13.8402 39.0408 15.372 39.0408 18.0362C39.0408 20.7269 41.0953 22.5119 44.0396 22.5119ZM44.8902 20.0476C43.2021 20.0476 42.129 19.2217 42.129 17.9562C42.129 16.6508 43.1628 15.8915 45.1388 15.7716L48.6589 15.5452V16.7174C48.6589 18.6622 47.0363 20.0476 44.8902 20.0476ZM55.6206 28C58.7089 28 60.1615 26.8011 61.4308 23.1646L66.9923 7.28639H63.7732L60.0437 19.5547H59.9783L56.2488 7.28639H52.938L58.3033 22.4053L58.0154 23.3245C57.5312 24.883 56.746 25.4824 55.3458 25.4824C55.0972 25.4824 54.613 25.4558 54.4167 25.4291V27.9201C54.5999 27.9734 55.3851 28 55.6206 28Z" fill="black"/>
</g>
<defs>
<clipPath id="clip0_34_2179">
<rect width="67" height="28" fill="white"/>
</clipPath>
</defs>
</svg>
