<svg width="120" height="60" viewBox="0 0 120 60" fill="none" xmlns="http://www.w3.org/2000/svg">
<g clip-path="url(#clip0_137_1654)">
<path d="M53.6485 9.80606H51.9838C51.8522 9.80606 51.7456 9.91243 51.7456 10.0436V11.7552C51.7456 11.8864 51.8522 11.9927 51.9838 11.9927H53.6485C53.7801 11.9927 53.8867 11.8864 53.8867 11.7552V10.0436C53.8867 9.91243 53.7801 9.80606 53.6485 9.80606Z" fill="#12375C"/>
<path d="M47.1377 4.9697H44.3769C44.189 4.9697 44.0366 5.12165 44.0366 5.30909V8.14303C44.0366 8.33047 44.189 8.48242 44.3769 8.48242H47.1377C47.3256 8.48242 47.4779 8.33047 47.4779 8.14303V5.30909C47.4779 5.12165 47.3256 4.9697 47.1377 4.9697Z" fill="#12375C"/>
<path d="M52.0737 5.41818H49.8378C49.6499 5.41818 49.4976 5.57013 49.4976 5.75758V7.78667C49.4976 7.97411 49.6499 8.12606 49.8378 8.12606H52.0737C52.2616 8.12606 52.4139 7.97411 52.4139 7.78667V5.75758C52.4139 5.57013 52.2616 5.41818 52.0737 5.41818Z" fill="#12375C"/>
<path d="M58.5649 4.98666H55.7968C55.6089 4.98666 55.4565 5.13862 55.4565 5.32606V8.16969C55.4565 8.35714 55.6089 8.50909 55.7968 8.50909H58.5649C58.7528 8.50909 58.9051 8.35714 58.9051 8.16969V5.32606C58.9051 5.13862 58.7528 4.98666 58.5649 4.98666Z" fill="#12375C"/>
<path d="M48.3968 1.76727H47.1865C47.0657 1.76727 46.9678 1.86496 46.9678 1.98545V3.23152C46.9678 3.35201 47.0657 3.4497 47.1865 3.4497H48.3968C48.5176 3.4497 48.6155 3.35201 48.6155 3.23152V1.98545C48.6155 1.86496 48.5176 1.76727 48.3968 1.76727Z" fill="#12375C"/>
<path d="M55.2765 0H52.246C52.1144 0 52.0078 0.106366 52.0078 0.237576V3.29939C52.0078 3.4306 52.1144 3.53697 52.246 3.53697H55.2765C55.4081 3.53697 55.5147 3.4306 55.5147 3.29939V0.237576C55.5147 0.106366 55.4081 0 55.2765 0Z" fill="#12375C"/>
<path d="M49.8596 10.5891H45.8691C45.6811 10.5891 45.5288 10.741 45.5288 10.9285V15.0182C45.5288 15.2056 45.6811 15.3576 45.8691 15.3576H49.8596C50.0475 15.3576 50.1998 15.2056 50.1998 15.0182V10.9285C50.1998 10.741 50.0475 10.5891 49.8596 10.5891Z" fill="#12375C"/>
<mask id="mask0_137_1654" style="mask-type:luminance" maskUnits="userSpaceOnUse" x="0" y="5" width="55" height="55">
<path d="M27.4863 59.6145C42.566 59.6145 54.7906 47.4204 54.7906 32.3782C54.7906 17.336 42.566 5.14182 27.4863 5.14182C12.4066 5.14182 0.182129 17.336 0.182129 32.3782C0.182129 47.4204 12.4066 59.6145 27.4863 59.6145Z" fill="white"/>
</mask>
<g mask="url(#mask0_137_1654)">
<path d="M49.7619 16.3273H45.0981C44.9583 16.3273 44.8241 16.2719 44.7252 16.1732C44.6263 16.0745 44.5708 15.9407 44.5708 15.8012V10.8945C43.4368 9.99326 42.2333 9.18266 40.9715 8.47031V48.9552C40.9715 49.777 40.3032 49.297 39.4818 49.297H33.5033V36.0436H21.4175V59.3624C23.7008 59.8589 26.0376 60.0666 28.3729 59.9806C43.2949 59.4327 55.1717 46.9527 54.9699 32.0582C54.9009 26.4044 53.0819 20.9101 49.7619 16.3273Z" fill="url(#paint0_linear_137_1654)"/>
<path d="M39.9314 49.2921H33.5033V36.0436H21.4175V59.3624C28.2301 60.8494 35.3543 59.7143 41.3637 56.1847C47.3731 52.655 51.824 46.9911 53.8253 40.3273L54.2846 38.6012C54.2846 38.6012 48.5589 49.2921 39.9314 49.2921Z" fill="url(#paint1_linear_137_1654)"/>
<path d="M21.4712 28.7127H33.5569V5.39386C31.2736 4.89749 28.9368 4.68979 26.6015 4.77568C11.6796 5.32356 -0.197228 17.8036 0.0044849 32.6981C0.0678855 37.5074 1.39229 42.2163 3.846 46.3566C6.29971 50.4969 9.79723 53.9244 13.9908 56.2981V15.8011C13.9908 14.9793 14.6566 15.4593 15.4805 15.4593H21.4663L21.4712 28.7127Z" fill="#12375C"/>
<g opacity="0.5">
<path d="M15.0432 15.4642H21.4713V28.7127H33.5571V5.39395C26.7445 3.90701 19.6202 5.04202 13.6108 8.57172C7.60144 12.1014 3.15051 17.7652 1.14927 24.4291L0.689941 26.1552C0.689941 26.1552 6.41568 15.4642 15.0432 15.4642Z" fill="url(#paint2_linear_137_1654)"/>
</g>
</g>
<path d="M64.5411 54.3685C63.5316 54.3372 62.5743 53.9135 61.8738 53.1877C61.1733 52.4619 60.7851 51.4917 60.7921 50.4843C60.7991 49.4768 61.2007 48.512 61.9112 47.796C62.6217 47.0799 63.5847 46.6694 64.5945 46.6521C65.1347 46.6338 65.6729 46.7276 66.1749 46.9275C66.6768 47.1273 67.1318 47.429 67.5109 47.8133L66.6651 48.783C66.0673 48.2303 65.4257 47.857 64.5727 47.857C63.1412 47.857 62.1035 49.0279 62.1035 50.4994C62.1035 51.9709 63.1412 53.1661 64.5727 53.1661C65.4913 53.1661 66.0794 52.7927 66.7186 52.1964L67.5619 53.0473C67.1881 53.4771 66.7231 53.8187 66.2006 54.0472C65.6782 54.2757 65.1113 54.3854 64.5411 54.3685Z" fill="#12375C"/>
<path d="M71.703 54.3685C71.3139 54.3782 70.9269 54.3101 70.5646 54.1683C70.2023 54.0264 69.8721 53.8137 69.5935 53.5426C69.315 53.2715 69.0936 52.9475 68.9425 52.5897C68.7914 52.2319 68.7136 51.8476 68.7137 51.4594C68.6958 50.8621 68.8572 50.273 69.1773 49.7678C69.4973 49.2627 69.9613 48.8644 70.5098 48.6241C71.0583 48.3838 71.6663 48.3124 72.2557 48.4192C72.8452 48.5259 73.3892 48.8059 73.818 49.2233C74.2468 49.6406 74.5409 50.1762 74.6624 50.7613C74.7839 51.3465 74.7275 51.9545 74.5002 52.5074C74.2729 53.0603 73.8852 53.5329 73.3868 53.8645C72.8884 54.1961 72.3021 54.3716 71.703 54.3685ZM71.703 49.6267C70.6677 49.6267 70.0018 50.4364 70.0018 51.4255C70.0018 52.4145 70.7187 53.2485 71.7224 53.2485C72.7699 53.2485 73.4236 52.4388 73.4236 51.4473C73.4236 50.4558 72.7188 49.6267 71.703 49.6267Z" fill="#12375C"/>
<path d="M80.6101 54.24V53.3018C80.4063 53.6264 80.1227 53.8937 79.7863 54.0783C79.4498 54.2628 79.0717 54.3586 78.6877 54.3564C77.3632 54.3564 76.0703 53.3018 76.0703 51.4255C76.0703 49.5491 77.3414 48.497 78.6877 48.497C79.0644 48.495 79.4359 48.5839 79.7706 48.7561C80.1053 48.9284 80.3933 49.1788 80.6101 49.4861V46.4606H81.903V54.24H80.6101ZM78.9988 49.6145C78.1117 49.6145 77.3754 50.2958 77.3754 51.4255C77.3754 52.5551 78.1215 53.2388 78.9988 53.2388C79.8761 53.2388 80.632 52.5236 80.632 51.4255C80.632 50.3273 79.864 49.6145 78.9988 49.6145Z" fill="#12375C"/>
<path d="M86.4403 53.3115C86.7274 53.3143 87.0118 53.2569 87.2752 53.1428C87.5386 53.0288 87.7749 52.8608 87.9689 52.6497L88.7272 53.3212C88.4503 53.6633 88.0978 53.9368 87.6972 54.1201C87.2966 54.3035 86.8589 54.3918 86.4184 54.3782C84.7853 54.3782 83.5264 53.1951 83.5264 51.4473C83.5264 49.8279 84.6686 48.5067 86.2799 48.5067C88.0759 48.5067 88.9848 49.9127 88.9848 51.5418C88.9848 51.6606 88.9726 51.7673 88.9629 51.8933H84.8168C84.9675 52.8 85.6067 53.3115 86.4403 53.3115ZM87.7016 51.0327C87.6165 50.2012 87.1256 49.5515 86.2701 49.5515C85.4803 49.5515 84.9238 50.1576 84.812 51.0327H87.7016Z" fill="#12375C"/>
<path d="M93.2185 54.3685C92.4379 54.3685 91.6893 54.0592 91.1374 53.5086C90.5855 52.9581 90.2754 52.2113 90.2754 51.4327C90.2754 50.6541 90.5855 49.9074 91.1374 49.3568C91.6893 48.8063 92.4379 48.497 93.2185 48.497C93.6434 48.4779 94.0672 48.5553 94.4579 48.7232C94.8485 48.8912 95.1959 49.1454 95.4738 49.4667L94.6718 50.3297C94.4961 50.1121 94.2741 49.9361 94.022 49.8146C93.7698 49.693 93.4937 49.6288 93.2136 49.6267C92.2731 49.6267 91.5902 50.4364 91.5902 51.4255C91.5902 52.4146 92.2852 53.2485 93.2768 53.2485C93.5557 53.2398 93.8296 53.1727 94.0808 53.0516C94.332 52.9305 94.5549 52.758 94.735 52.5455L95.5151 53.3115C95.2392 53.6517 94.8886 53.9239 94.4904 54.1072C94.0921 54.2905 93.6569 54.3799 93.2185 54.3685Z" fill="#12375C"/>
<path d="M98.3217 54.24H97.0288V48.6133H98.3217V49.8812C98.6717 49.04 99.3254 48.4655 100.317 48.5067V49.8715H100.244C99.1116 49.8715 98.3217 50.5988 98.3217 52.097V54.24Z" fill="#12375C"/>
<path d="M104.937 54.24V53.5467C104.713 53.8095 104.432 54.0182 104.116 54.1568C103.799 54.2954 103.455 54.3603 103.109 54.3467C102.043 54.3467 101.102 53.7406 101.102 52.6109V52.5891C101.102 51.377 102.074 50.7782 103.389 50.7782C103.918 50.7719 104.445 50.8538 104.947 51.0206V50.8824C104.947 50.1042 104.461 49.6703 103.559 49.6703C103.002 49.6729 102.452 49.7935 101.945 50.0242L101.593 48.9891C102.264 48.674 102.999 48.5164 103.741 48.5285C105.406 48.5285 106.218 49.4012 106.218 50.9042V54.24H104.937ZM104.969 51.8521C104.555 51.701 104.117 51.6255 103.676 51.6291C102.864 51.6291 102.383 51.9588 102.383 52.5333V52.5551C102.383 53.0885 102.869 53.3867 103.474 53.3867C104.327 53.3867 104.969 52.9018 104.969 52.2036V51.8521Z" fill="#12375C"/>
<path d="M111.132 48.657V49.7212H109.657V54.24H108.364V49.7212H107.649V48.6448H108.364V48.24C108.364 47.0036 108.984 46.3976 110.094 46.3976C110.449 46.3931 110.802 46.443 111.142 46.5455V47.6339C110.899 47.5452 110.642 47.4985 110.383 47.4958C109.897 47.4958 109.635 47.76 109.635 48.3467V48.657H111.132Z" fill="#12375C"/>
<path d="M113.97 52.4824C113.97 52.9818 114.228 53.1855 114.665 53.1855C114.944 53.186 115.219 53.1195 115.467 52.9915V54.0485C115.111 54.2458 114.708 54.3446 114.301 54.3346C113.351 54.3346 112.68 53.92 112.68 52.6836V49.7212H111.951V48.6133H112.68V47.0739H113.97V48.6182H115.487V49.7261H113.97V52.4824Z" fill="#12375C"/>
<path d="M75.3074 42.2255V32.1697C75.3067 32.0615 75.2632 31.9579 75.1862 31.8816C75.1093 31.8053 75.0052 31.7624 74.8966 31.7624H65.2703C65.162 31.7624 65.0582 31.8053 64.9816 31.8817C64.905 31.9581 64.862 32.0617 64.862 32.1697V42.2255C64.862 42.3335 64.819 42.4371 64.7424 42.5134C64.6659 42.5898 64.562 42.6327 64.4537 42.6327H61.5811C61.4729 42.6327 61.369 42.5898 61.2924 42.5134C61.2159 42.4371 61.1729 42.3335 61.1729 42.2255V18.1042C61.1729 17.9962 61.2159 17.8926 61.2924 17.8163C61.369 17.7399 61.4729 17.697 61.5811 17.697H64.4537C64.562 17.697 64.6659 17.7399 64.7424 17.8163C64.819 17.8926 64.862 17.9962 64.862 18.1042V28.1406C64.862 28.2486 64.905 28.3522 64.9816 28.4286C65.0582 28.505 65.162 28.5479 65.2703 28.5479H74.8966C75.0052 28.5479 75.1093 28.5051 75.1862 28.4287C75.2632 28.3524 75.3067 28.2488 75.3074 28.1406V18.1042C75.3067 18.0499 75.317 17.9961 75.3375 17.9458C75.358 17.8955 75.3884 17.8498 75.4269 17.8114C75.4654 17.773 75.5112 17.7426 75.5616 17.7222C75.6121 17.7017 75.6661 17.6915 75.7205 17.6921H78.6101C78.7184 17.6921 78.8223 17.735 78.8988 17.8114C78.9754 17.8878 79.0184 17.9914 79.0184 18.0994V42.2255C79.0184 42.3335 78.9754 42.4371 78.8988 42.5134C78.8223 42.5898 78.7184 42.6327 78.6101 42.6327H75.7205C75.6665 42.6334 75.6129 42.6233 75.5628 42.6031C75.5127 42.5829 75.4671 42.5531 75.4287 42.5152C75.3902 42.4773 75.3597 42.4322 75.3389 42.3824C75.3181 42.3327 75.3074 42.2793 75.3074 42.2255Z" fill="#12375C"/>
<path d="M107.419 42.0194L112.333 34.0533C112.375 33.9857 112.395 33.9072 112.392 33.8277C112.389 33.7482 112.363 33.6715 112.316 33.6072C112.269 33.5429 112.204 33.4941 112.129 33.4669C112.054 33.4397 111.973 33.4354 111.895 33.4545L111.436 33.5685C110.841 33.7135 110.231 33.7867 109.618 33.7867C105.244 33.7867 101.703 30.3224 101.703 26.0654C101.703 21.5394 105.798 17.857 110.836 17.857C115.874 17.857 120 21.5588 120 26.0994C120 28.5867 119.198 29.8424 115.823 35.1321L115.793 35.1782C114.6 37.0497 113.12 39.3648 111.237 42.4242C111.201 42.4828 111.15 42.5312 111.09 42.5647C111.03 42.5983 110.963 42.6158 110.894 42.6157H107.761C107.692 42.6146 107.624 42.5955 107.564 42.5602C107.504 42.525 107.455 42.4748 107.42 42.4147C107.386 42.3546 107.367 42.2865 107.367 42.2172C107.367 42.1479 107.385 42.0798 107.419 42.0194ZM110.836 21.0085C107.842 21.0085 105.314 23.3527 105.314 26.1261C105.314 28.8994 107.834 31.2921 110.819 31.2921C113.803 31.2921 116.372 28.9261 116.372 26.1261C116.372 23.4012 113.784 21.0085 110.836 21.0085Z" fill="#12375C"/>
<path d="M95.9764 42.6279C95.8931 42.6279 95.8131 42.595 95.7539 42.5364C95.6947 42.4779 95.6611 42.3983 95.6605 42.3152V31.6945C95.6605 28.5115 94.0468 26.6861 91.235 26.6861C88.4231 26.6861 86.5858 28.6812 86.5858 31.777V42.3224C86.5852 42.4056 86.5516 42.4851 86.4925 42.5437C86.4333 42.6023 86.3533 42.6352 86.2699 42.6352H82.8238C82.7826 42.6352 82.7418 42.6271 82.7038 42.6113C82.6657 42.5956 82.6312 42.5726 82.6021 42.5436C82.573 42.5145 82.5499 42.48 82.5341 42.4421C82.5184 42.4042 82.5103 42.3635 82.5103 42.3224V23.7527C82.5103 23.6696 82.5432 23.5898 82.6019 23.5307C82.6606 23.4717 82.7404 23.4382 82.8238 23.4376H86.2699C86.3537 23.4376 86.434 23.4708 86.4933 23.5299C86.5525 23.589 86.5858 23.6691 86.5858 23.7527V24.7394C86.5835 24.838 86.6013 24.936 86.6381 25.0275C86.6749 25.119 86.73 25.2021 86.8 25.2717C86.87 25.3413 86.9535 25.396 87.0454 25.4325C87.1372 25.4689 87.2355 25.4863 87.3344 25.4836C87.4385 25.4838 87.5416 25.4623 87.637 25.4206C87.7324 25.3788 87.818 25.3177 87.8885 25.2412C88.5193 24.5272 89.2991 23.9595 90.1732 23.578C91.0473 23.1965 91.9945 23.0104 92.9483 23.0327C97.1989 23.0327 99.7361 25.7745 99.7361 30.3636V42.32C99.7354 42.4032 99.7019 42.4827 99.6427 42.5413C99.5835 42.5999 99.5035 42.6327 99.4202 42.6327L95.9764 42.6279Z" fill="#12375C"/>
</g>
<defs>
<linearGradient id="paint0_linear_137_1654" x1="21.4175" y1="34.2279" x2="54.9724" y2="34.2279" gradientUnits="userSpaceOnUse">
<stop stop-color="#EFA81F"/>
<stop offset="1" stop-color="#EFA81F"/>
</linearGradient>
<linearGradient id="paint1_linear_137_1654" x1="54.2822" y1="48.0218" x2="21.415" y2="48.0218" gradientUnits="userSpaceOnUse">
<stop stop-color="#B47B2B"/>
<stop offset="1" stop-color="#FDBA39"/>
</linearGradient>
<linearGradient id="paint2_linear_137_1654" x1="0.689941" y1="16.7346" x2="33.5571" y2="16.7346" gradientUnits="userSpaceOnUse">
<stop stop-color="#689ABC"/>
<stop offset="1" stop-color="#2D4865"/>
</linearGradient>
<clipPath id="clip0_137_1654">
<rect width="120" height="60" fill="white"/>
</clipPath>
</defs>
</svg>
