<svg width="21" height="21" viewBox="0 0 21 21" fill="none" xmlns="http://www.w3.org/2000/svg">
<path fill-rule="evenodd" clip-rule="evenodd" d="M6.32527 10.1201C6.32527 9.91878 6.40524 9.72573 6.54758 9.58339C6.68992 9.44104 6.88298 9.36108 7.08428 9.36108H18.1891L16.2045 7.6609C16.1288 7.59604 16.0665 7.5169 16.0214 7.428C15.9762 7.33909 15.949 7.24216 15.9413 7.14273C15.9336 7.04331 15.9455 6.94334 15.9765 6.84853C16.0074 6.75373 16.0567 6.66594 16.1215 6.59019C16.1864 6.51444 16.2655 6.4522 16.3544 6.40703C16.4434 6.36187 16.5403 6.33465 16.6397 6.32695C16.7391 6.31924 16.8391 6.33119 16.9339 6.36212C17.0287 6.39305 17.1165 6.44235 17.1922 6.50721L20.7343 9.54324C20.8176 9.6145 20.8845 9.70296 20.9304 9.80254C20.9762 9.90212 21 10.0104 21 10.1201C21 10.2297 20.9762 10.3381 20.9304 10.4376C20.8845 10.5372 20.8176 10.6257 20.7343 10.6969L17.1922 13.733C17.0393 13.8639 16.8405 13.9288 16.6397 13.9132C16.4389 13.8977 16.2525 13.803 16.1215 13.65C15.9906 13.497 15.9257 13.2982 15.9413 13.0974C15.9568 12.8966 16.0515 12.7103 16.2045 12.5793L18.1881 10.8791H7.08428C6.88298 10.8791 6.68992 10.7991 6.54758 10.6568C6.40524 10.5144 6.32527 10.3214 6.32527 10.1201Z" fill="#143E57"/>
<path d="M13.1562 6.07208C13.1562 6.78251 13.1563 7.13772 12.9852 7.39376C12.9116 7.50385 12.817 7.59841 12.7069 7.67207C12.4509 7.8431 12.0957 7.8431 11.3852 7.8431H7.08418C6.48028 7.8431 5.90111 8.083 5.47408 8.51002C5.04706 8.93705 4.80716 9.51622 4.80716 10.1201C4.80716 10.724 5.04706 11.3032 5.47408 11.7302C5.90111 12.1572 6.48028 12.3971 7.08418 12.3971H11.3852C12.0957 12.3971 12.4509 12.3971 12.7069 12.5672C12.8171 12.6411 12.9117 12.736 12.9852 12.8465C13.1563 13.1025 13.1562 13.4577 13.1562 14.1682C13.1562 17.0301 13.1563 18.4621 12.2667 19.3507C11.3781 20.2402 9.94716 20.2402 7.08519 20.2402H6.07318C3.20919 20.2402 1.77922 20.2402 0.889661 19.3507C0.000102997 18.4621 0.000102997 17.0301 0.000102997 14.1682V6.07208C0.000102997 3.21011 0.000102997 1.77811 0.889661 0.889566C1.77922 0.00101957 3.2102 7.62939e-06 6.07217 7.62939e-06H7.08418C9.94716 7.62939e-06 11.3781 7.56907e-06 12.2667 0.889566C13.1563 1.77811 13.1562 3.21011 13.1562 6.07208Z" fill="#143E57"/>
</svg>
