<svg width="52" height="40" viewBox="0 0 52 40" fill="none" xmlns="http://www.w3.org/2000/svg">
<g clip-path="url(#clip0_34_2166)">
<path d="M9.42474 39.9123V37.2577C9.42474 36.2422 8.80024 35.5773 7.72818 35.5773C7.19215 35.5773 6.60929 35.7525 6.20857 36.3299C5.89632 35.8453 5.44876 35.5773 4.77742 35.5773C4.32987 35.5773 3.88231 35.7113 3.52842 36.1958V35.6649H2.59167V39.9123H3.52842V37.567C3.52842 36.8144 3.92914 36.4587 4.55364 36.4587C5.17814 36.4587 5.49039 36.8556 5.49039 37.567V39.9123H6.42714V37.567C6.42714 36.8144 6.8747 36.4587 7.45236 36.4587C8.07686 36.4587 8.38911 36.8556 8.38911 37.567V39.9123H9.42474ZM23.3199 35.6649H21.8002V34.3814H20.8635V35.6649H20.0152V36.5051H20.8635V38.4536C20.8635 39.4278 21.2642 40 22.3363 40C22.737 40 23.1845 39.8659 23.4968 39.6907L23.2262 38.8917C22.9556 39.067 22.6433 39.1134 22.4195 39.1134C21.972 39.1134 21.795 38.8453 21.795 38.4072V36.5051H23.3147V35.6649H23.3199ZM31.2718 35.5721C30.7358 35.5721 30.3767 35.8402 30.1529 36.1907V35.6598H29.2162V39.9072H30.1529V37.5154C30.1529 36.8092 30.4652 36.4072 31.048 36.4072C31.225 36.4072 31.4488 36.4536 31.6309 36.4948L31.9015 35.6082C31.7142 35.5721 31.4488 35.5721 31.2718 35.5721ZM19.2554 36.0154C18.8078 35.7061 18.1833 35.5721 17.512 35.5721C16.44 35.5721 15.727 36.1031 15.727 36.9433C15.727 37.6494 16.263 38.0515 17.1998 38.1804L17.6473 38.2268C18.1365 38.3144 18.4071 38.4484 18.4071 38.6701C18.4071 38.9793 18.048 39.201 17.4235 39.201C16.799 39.201 16.3046 38.9793 15.9924 38.7577L15.5448 39.4639C16.034 39.8195 16.7054 39.9948 17.3767 39.9948C18.6257 39.9948 19.3439 39.4175 19.3439 38.6237C19.3439 37.8711 18.761 37.4742 17.8711 37.3402L17.4235 37.2938C17.0228 37.2474 16.7106 37.1598 16.7106 36.8969C16.7106 36.5876 17.0228 36.4123 17.5172 36.4123C18.0532 36.4123 18.5893 36.634 18.8599 36.768L19.2554 36.0154ZM44.1781 35.5721C43.6421 35.5721 43.283 35.8402 43.0592 36.1907V35.6598H42.1225V39.9072H43.0592V37.5154C43.0592 36.8092 43.3715 36.4072 43.9544 36.4072C44.1313 36.4072 44.3551 36.4536 44.5372 36.4948L44.8078 35.6185C44.6257 35.5721 44.3603 35.5721 44.1781 35.5721ZM32.2086 37.7886C32.2086 39.0721 33.1037 40 34.488 40C35.1125 40 35.5601 39.8659 36.0076 39.5154L35.56 38.7628C35.201 39.0309 34.8471 39.1598 34.4412 39.1598C33.6813 39.1598 33.1453 38.6288 33.1453 37.7886C33.1453 36.9897 33.6813 36.4587 34.4412 36.4175C34.8419 36.4175 35.201 36.5515 35.56 36.8144L36.0076 36.0618C35.5601 35.7061 35.1125 35.5773 34.488 35.5773C33.1037 35.5721 32.2086 36.5051 32.2086 37.7886ZM40.8735 37.7886V35.6649H39.9368V36.1958C39.6245 35.7989 39.1769 35.5773 38.5941 35.5773C37.3867 35.5773 36.45 36.5051 36.45 37.7886C36.45 39.0721 37.3867 40 38.5941 40C39.2186 40 39.6661 39.7783 39.9368 39.3814V39.9123H40.8735V37.7886ZM37.4335 37.7886C37.4335 37.036 37.9227 36.4175 38.7294 36.4175C39.4892 36.4175 40.0252 36.9948 40.0252 37.7886C40.0252 38.5412 39.4892 39.1598 38.7294 39.1598C37.9279 39.1134 37.4335 38.536 37.4335 37.7886ZM26.2238 35.5721C24.9748 35.5721 24.0797 36.4587 24.0797 37.7835C24.0797 39.1134 24.9748 39.9948 26.2706 39.9948C26.8951 39.9948 27.5196 39.8196 28.014 39.4175L27.5665 38.7525C27.2074 39.0206 26.7598 39.1958 26.3175 39.1958C25.7346 39.1958 25.1569 38.9278 25.0216 38.1804H28.191C28.191 38.0464 28.191 37.9587 28.191 37.8247C28.2326 36.4587 27.4259 35.5721 26.2238 35.5721ZM26.2238 36.3711C26.8066 36.3711 27.2074 36.7268 27.2958 37.3866H25.0633C25.1517 36.8144 25.5524 36.3711 26.2238 36.3711ZM49.4968 37.7886V33.9845H48.56V36.1958C48.2478 35.7989 47.8002 35.5773 47.2174 35.5773C46.01 35.5773 45.0733 36.5051 45.0733 37.7886C45.0733 39.0721 46.01 40 47.2174 40C47.8419 40 48.2894 39.7783 48.56 39.3814V39.9123H49.4968V37.7886ZM46.0568 37.7886C46.0568 37.036 46.546 36.4175 47.3527 36.4175C48.1125 36.4175 48.6485 36.9948 48.6485 37.7886C48.6485 38.5412 48.1125 39.1598 47.3527 39.1598C46.546 39.1134 46.0568 38.536 46.0568 37.7886ZM14.6966 37.7886V35.6649H13.7598V36.1958C13.4476 35.7989 13 35.5773 12.4171 35.5773C11.2098 35.5773 10.273 36.5051 10.273 37.7886C10.273 39.0721 11.2098 40 12.4171 40C13.0416 40 13.4892 39.7783 13.7598 39.3814V39.9123H14.6966V37.7886ZM11.215 37.7886C11.215 37.036 11.7042 36.4175 12.5108 36.4175C13.2706 36.4175 13.8066 36.9948 13.8066 37.7886C13.8066 38.5412 13.2706 39.1598 12.5108 39.1598C11.7042 39.1134 11.215 38.536 11.215 37.7886Z" fill="black"/>
<path d="M33.0152 3.40723H18.9431V28.4485H33.0152V3.40723Z" fill="#FF5A00"/>
<path d="M19.8799 15.9278C19.8799 10.8402 22.2946 6.32474 26 3.40722C23.273 1.28351 19.8331 0 16.0809 0C7.19215 0 0 7.12371 0 15.9278C0 24.732 7.19215 31.8557 16.0809 31.8557C19.8331 31.8557 23.273 30.5722 26 28.4485C22.2894 25.5722 19.8799 21.0155 19.8799 15.9278Z" fill="#EB001B"/>
<path d="M52 15.9278C52 24.732 44.8078 31.8557 35.9191 31.8557C32.1669 31.8557 28.727 30.5722 26 28.4485C29.7522 25.5258 32.1201 21.0155 32.1201 15.9278C32.1201 10.8402 29.7054 6.32474 26 3.40722C28.7218 1.28351 32.1617 0 35.9139 0C44.8078 0 52 7.1701 52 15.9278Z" fill="#F79E1B"/>
</g>
<defs>
<clipPath id="clip0_34_2166">
<rect width="52" height="40" fill="white"/>
</clipPath>
</defs>
</svg>
