<svg width="69" height="19" viewBox="0 0 69 19" fill="none" xmlns="http://www.w3.org/2000/svg">
<path d="M25.7142 3.88574H21.9087C21.6482 3.88574 21.4268 4.0815 21.3862 4.3475L19.847 14.4446C19.8164 14.6438 19.9655 14.8234 20.1609 14.8234H21.9777C22.2381 14.8234 22.4596 14.6277 22.5002 14.3611L22.9153 11.6377C22.9554 11.3712 23.1774 11.1754 23.4372 11.1754H24.642C27.1488 11.1754 28.5955 9.92026 28.9734 7.43298C29.1436 6.3448 28.9806 5.4898 28.4881 4.89101C27.9473 4.2335 26.988 3.88574 25.7142 3.88574ZM26.1533 7.57347C25.9452 8.98638 24.9018 8.98638 23.893 8.98638H23.3187L23.7216 6.34768C23.7455 6.1882 23.8791 6.07074 24.0349 6.07074H24.2981C24.9853 6.07074 25.6336 6.07074 25.9685 6.47608C26.1683 6.71789 26.2295 7.07717 26.1533 7.57347Z" fill="#253B80"/>
<path d="M37.0898 7.52804H35.2674C35.1121 7.52804 34.978 7.6455 34.9541 7.80498L34.8734 8.33237L34.746 8.14122C34.3515 7.54877 33.4717 7.35071 32.5936 7.35071C30.5798 7.35071 28.8598 8.92886 28.5249 11.1426C28.3507 12.247 28.5983 13.3029 29.2037 14.0393C29.7591 14.7164 30.5537 14.9985 31.4991 14.9985C33.1217 14.9985 34.0215 13.9189 34.0215 13.9189L33.9402 14.4429C33.9096 14.6433 34.0588 14.8229 34.253 14.8229H35.8945C36.1555 14.8229 36.3758 14.6271 36.417 14.3606L37.4019 7.90689C37.4331 7.70825 37.2845 7.52804 37.0898 7.52804ZM34.5496 11.1979C34.3737 12.2752 33.5474 12.9983 32.4935 12.9983C31.9643 12.9983 31.5414 12.8227 31.2698 12.4899C31.0005 12.1594 30.8981 11.689 30.9838 11.1651C31.148 10.0971 31.9882 9.35031 33.026 9.35031C33.5435 9.35031 33.9642 9.52822 34.2413 9.86389C34.5189 10.203 34.6291 10.6763 34.5496 11.1979Z" fill="#253B80"/>
<path d="M46.7954 7.52808H44.9641C44.7894 7.52808 44.6252 7.61789 44.5262 7.76817L42.0004 11.6177L40.9298 7.91844C40.8625 7.68699 40.656 7.52808 40.4223 7.52808H38.6228C38.4041 7.52808 38.2522 7.74917 38.3217 7.9622L40.3389 14.0871L38.4425 16.8571C38.2933 17.0753 38.4436 17.3753 38.7012 17.3753H40.5303C40.7039 17.3753 40.8664 17.2877 40.9649 17.1403L47.0558 8.04338C47.2016 7.82574 47.0519 7.52808 46.7954 7.52808Z" fill="#253B80"/>
<path d="M52.8584 3.88574H49.0523C48.7924 3.88574 48.5709 4.0815 48.5303 4.3475L46.9912 14.4446C46.9606 14.6438 47.1097 14.8234 47.3039 14.8234H49.257C49.4385 14.8234 49.5937 14.6864 49.6221 14.4998L50.0589 11.6377C50.099 11.3712 50.321 11.1754 50.5808 11.1754H51.785C54.2924 11.1754 55.7386 9.92026 56.117 7.43298C56.2878 6.3448 56.1237 5.4898 55.6312 4.89101C55.0909 4.2335 54.1321 3.88574 52.8584 3.88574ZM53.2974 7.57347C53.0899 8.98638 52.0465 8.98638 51.0371 8.98638H50.4634L50.8669 6.34768C50.8908 6.1882 51.0232 6.07074 51.1796 6.07074H51.4428C52.1295 6.07074 52.7783 6.07074 53.1133 6.47608C53.313 6.71789 53.3737 7.07717 53.2974 7.57347Z" fill="#179BD7"/>
<path d="M64.2335 7.52804H62.4122C62.2559 7.52804 62.1229 7.6455 62.0995 7.80498L62.0188 8.33237L61.8908 8.14122C61.4963 7.54877 60.6171 7.35071 59.739 7.35071C57.7252 7.35071 56.0058 8.92886 55.6708 11.1426C55.4972 12.247 55.7437 13.3029 56.3491 14.0393C56.9056 14.7164 57.6991 14.9985 58.6445 14.9985C60.2671 14.9985 61.1669 13.9189 61.1669 13.9189L61.0856 14.4429C61.055 14.6433 61.2042 14.8229 61.3995 14.8229H63.0405C63.3003 14.8229 63.5218 14.6271 63.5624 14.3606L64.5479 7.90689C64.5779 7.70825 64.4288 7.52804 64.2335 7.52804ZM61.6933 11.1979C61.5186 12.2752 60.6911 12.9983 59.6372 12.9983C59.1091 12.9983 58.6851 12.8227 58.4136 12.4899C58.1442 12.1594 58.043 11.689 58.1276 11.1651C58.2928 10.0971 59.1319 9.35031 60.1697 9.35031C60.6872 9.35031 61.1079 9.52822 61.385 9.86389C61.6638 10.203 61.774 10.6763 61.6933 11.1979Z" fill="#179BD7"/>
<path d="M66.3819 4.16277L64.8199 14.4446C64.7893 14.6439 64.9384 14.8235 65.1326 14.8235H66.7029C66.9639 14.8235 67.1854 14.6277 67.2255 14.3612L68.7657 4.26468C68.7963 4.06547 68.6472 3.88525 68.453 3.88525H66.6946C66.5394 3.88583 66.4058 4.00328 66.3819 4.16277Z" fill="#179BD7"/>
<path d="M4.04324 16.7857L4.33426 14.873L3.68599 14.8574H0.590454L2.7417 0.743903C2.74837 0.701297 2.77008 0.661569 2.80179 0.633357C2.83351 0.605145 2.87413 0.5896 2.91642 0.5896H8.13594C9.86873 0.5896 11.0645 0.96269 11.6889 1.69908C11.9816 2.04454 12.168 2.40554 12.2581 2.80281C12.3527 3.21966 12.3544 3.71769 12.262 4.32511L12.2553 4.36945V4.75866L12.548 4.93024C12.7945 5.06554 12.9904 5.22042 13.1407 5.39775C13.3911 5.69311 13.553 6.06851 13.6214 6.51357C13.6921 6.9713 13.6687 7.51596 13.553 8.1326C13.4194 8.84193 13.2035 9.45972 12.912 9.96524C12.6438 10.431 12.3021 10.8174 11.8964 11.1168C11.5091 11.4012 11.049 11.6171 10.5287 11.7553C10.0245 11.8911 9.44972 11.9597 8.81926 11.9597H8.41305C8.12258 11.9597 7.84046 12.0679 7.61899 12.2619C7.39697 12.46 7.25007 12.7306 7.20499 13.0265L7.17439 13.1987L6.66023 16.5697L6.63686 16.6935C6.63074 16.7327 6.62016 16.7523 6.60458 16.7655C6.59067 16.7776 6.57064 16.7857 6.55116 16.7857H4.04324Z" fill="#253B80"/>
<path d="M12.8251 4.41431C12.8095 4.51737 12.7917 4.62273 12.7717 4.73097C12.0833 8.38761 9.72842 9.65082 6.7208 9.65082H5.18944C4.82163 9.65082 4.51168 9.92719 4.45437 10.3026L3.67033 15.4475L3.4483 16.9059C3.41102 17.1524 3.59465 17.3746 3.83504 17.3746H6.55108C6.87271 17.3746 7.14592 17.1328 7.19656 16.8046L7.22327 16.6618L7.73465 13.304L7.76748 13.1198C7.81756 12.7904 8.09134 12.5486 8.41297 12.5486H8.81917C11.4506 12.5486 13.5106 11.4432 14.1127 8.24425C14.3642 6.90791 14.234 5.79209 13.5685 5.00734C13.3671 4.7707 13.1172 4.57437 12.8251 4.41431Z" fill="#179BD7"/>
<path d="M12.105 4.11721C11.9998 4.08554 11.8913 4.05675 11.78 4.03085C11.6682 4.00551 11.5536 3.98306 11.4356 3.96348C11.0227 3.89439 10.5703 3.86157 10.0856 3.86157H5.9946C5.89389 3.86157 5.79818 3.88518 5.71248 3.92778C5.52385 4.02163 5.38362 4.20645 5.34968 4.43272L4.47939 10.1362L4.45435 10.3026C4.51166 9.92718 4.8216 9.65081 5.18942 9.65081H6.72077C9.72839 9.65081 12.0833 8.38703 12.7716 4.73097C12.7922 4.62272 12.8095 4.51736 12.825 4.4143C12.6509 4.31872 12.4622 4.23697 12.2591 4.1673C12.2091 4.15003 12.1573 4.13333 12.105 4.11721Z" fill="#222D65"/>
<path d="M5.34972 4.43276C5.38366 4.20648 5.52389 4.02167 5.71253 3.92839C5.79878 3.88579 5.89393 3.86218 5.99465 3.86218H10.0857C10.5703 3.86218 11.0227 3.895 11.4356 3.96409C11.5536 3.98367 11.6682 4.00612 11.7801 4.03145C11.8914 4.05736 11.9999 4.08615 12.105 4.11782C12.1573 4.13394 12.2091 4.15064 12.2597 4.16733C12.4628 4.237 12.6515 4.31933 12.8256 4.41433C13.0304 3.06303 12.824 2.14297 12.1178 1.30985C11.3394 0.392667 9.93432 0 8.13643 0H2.91691C2.54966 0 2.23637 0.276364 2.17961 0.652333L0.0055583 14.911C-0.0372885 15.1931 0.17305 15.4476 0.447937 15.4476H3.67035L4.47943 10.1362L5.34972 4.43276Z" fill="#253B80"/>
</svg>
