<svg width="19" height="22" viewBox="0 0 19 22" fill="none" xmlns="http://www.w3.org/2000/svg">
<path d="M16.9206 6.69429L18.4194 5.20667C17.9444 4.67238 17.4694 4.19048 16.9311 3.72952L15.4322 5.2381C13.7961 3.9181 11.7378 3.14286 9.5 3.14286C6.98044 3.14286 4.56408 4.13622 2.78249 5.90442C1.00089 7.67262 0 10.0708 0 12.5714C0 15.072 1.00089 17.4702 2.78249 19.2384C4.56408 21.0066 6.98044 22 9.5 22C14.7778 22 19 17.7781 19 12.5714C19 10.3505 18.2189 8.30762 16.9206 6.69429ZM10.5556 13.619H8.44444V6.28571H10.5556V13.619ZM12.6667 0H6.33333V2.09524H12.6667V0Z" fill="#143E57"/>
</svg>
