<svg width="21" height="23" viewBox="0 0 21 23" fill="none" xmlns="http://www.w3.org/2000/svg">
<path fill-rule="evenodd" clip-rule="evenodd" d="M5.83333 5.11111C5.83333 3.75556 6.325 2.45553 7.20017 1.49701C8.07534 0.53849 9.26232 0 10.5 0C11.7377 0 12.9247 0.53849 13.7998 1.49701C14.675 2.45553 15.1667 3.75556 15.1667 5.11111C15.1667 6.46666 14.675 7.76669 13.7998 8.72521C12.9247 9.68373 11.7377 10.2222 10.5 10.2222C9.26232 10.2222 8.07534 9.68373 7.20017 8.72521C6.325 7.76669 5.83333 6.46666 5.83333 5.11111ZM5.83333 12.7778C4.28624 12.7778 2.80251 13.4509 1.70854 14.649C0.614582 15.8472 0 17.4722 0 19.1667C0 20.1833 0.368749 21.1584 1.02513 21.8772C1.6815 22.5961 2.57174 23 3.5 23H17.5C18.4283 23 19.3185 22.5961 19.9749 21.8772C20.6313 21.1584 21 20.1833 21 19.1667C21 17.4722 20.3854 15.8472 19.2915 14.649C18.1975 13.4509 16.7138 12.7778 15.1667 12.7778H5.83333Z" fill="#0D365C"/>
</svg>
