<svg width="26" height="21" viewBox="0 0 26 21" fill="none" xmlns="http://www.w3.org/2000/svg">
<path d="M25.5627 18.2881C25.0631 17.8103 19.0092 15.5359 17.9107 15.1069C16.818 14.6853 16.3821 13.5172 16.3821 13.5172C16.3821 13.5172 15.8902 13.7813 15.8902 13.0394C15.8902 12.2966 16.3821 13.5172 16.8739 10.6526C16.8739 10.6526 18.2386 10.2807 17.9676 7.20531H17.6397C17.6397 7.20531 18.4595 3.91729 17.6397 2.80442C16.817 1.69155 16.4949 0.949639 14.6885 0.417561C12.885 -0.113581 13.5408 -0.00772694 12.2311 0.046605C10.9194 0.1 9.82767 0.789454 9.82767 1.15947C9.82767 1.15947 9.00788 1.21287 8.6819 1.53137C8.35398 1.84986 7.8081 3.33369 7.8081 3.70464C7.8081 4.0756 8.08104 6.57112 8.35398 7.09945L8.02896 7.2025C7.75602 10.2788 9.12072 10.6516 9.12072 10.6516C9.61259 13.5162 10.1045 12.2956 10.1045 13.0385C10.1045 13.7804 9.61259 13.5162 9.61259 13.5162C9.61259 13.5162 9.1757 14.6834 8.08394 15.1059C6.99218 15.5303 0.931566 17.8103 0.438731 18.2871C-0.0531388 18.7743 0.00183482 21 0.00183482 21H25.9977C25.9977 21 26.0584 18.7724 25.5608 18.2862L25.5627 18.2881ZM19.4529 20.3958H15.0531V19.2248H19.4529V20.3958Z" fill="#143E57"/>
</svg>
