<svg width="52" height="17" viewBox="0 0 52 17" fill="none" xmlns="http://www.w3.org/2000/svg">
<g clip-path="url(#clip0_34_2172)">
<path d="M22.5333 16.7548H18.3209L20.9556 0.29834H25.1678L22.5333 16.7548Z" fill="#00579F"/>
<path d="M37.8034 0.700616C36.9726 0.367644 35.6547 0 34.0253 0C29.8654 0 26.9361 2.24076 26.9181 5.44438C26.8836 7.808 29.0154 9.12081 30.6099 9.90891C32.2396 10.7142 32.7936 11.2399 32.7936 11.9577C32.777 13.0602 31.4767 13.5684 30.2639 13.5684C28.5821 13.5684 27.681 13.3064 26.3116 12.693L25.7569 12.4301L25.1675 16.1242C26.1554 16.5788 27.9756 16.9823 29.8654 17C34.2853 17 37.1628 14.7939 37.1969 11.38C37.2137 9.5066 36.088 8.07116 33.6611 6.8982C32.1878 6.14523 31.2855 5.63751 31.2855 4.86708C31.3028 4.1667 32.0486 3.44933 33.7118 3.44933C35.0812 3.41419 36.0873 3.7467 36.8496 4.07944L37.2305 4.25419L37.8034 0.700616Z" fill="#00579F"/>
<path d="M43.4021 10.9249C43.749 9.97945 45.0839 6.32047 45.0839 6.32047C45.0664 6.35561 45.4301 5.35762 45.6381 4.74496L45.9325 6.16295C45.9325 6.16295 46.7302 10.1021 46.9034 10.9249C46.2451 10.9249 44.2341 10.9249 43.4021 10.9249ZM48.6017 0.29834H45.3435C44.3387 0.29834 43.5753 0.595712 43.1418 1.66374L36.8849 16.7546H41.3048C41.3048 16.7546 42.0325 14.7234 42.1889 14.286C42.6738 14.286 46.9734 14.286 47.5972 14.286C47.7181 14.8638 48.0998 16.7546 48.0998 16.7546H52.0001L48.6017 0.29834Z" fill="#00579F"/>
<path d="M14.8025 0.29834L10.6773 11.5201L10.2265 9.24417C9.46378 6.61808 7.07185 3.76489 4.40259 2.34621L8.18121 16.7373H12.6357L19.2568 0.29834H14.8025Z" fill="#00579F"/>
<path d="M6.84662 0.29834H0.0693343L0 0.630847C5.28671 1.99648 8.78799 5.28828 10.2265 9.24487L8.7532 1.68166C8.51065 0.630615 7.76524 0.33301 6.84662 0.29834Z" fill="#FAA61A"/>
</g>
<defs>
<clipPath id="clip0_34_2172">
<rect width="52" height="17" fill="white"/>
</clipPath>
</defs>
</svg>
